<svg width="256" height="256" viewBox="0 0 256 256" fill="none" xmlns="http://www.w3.org/2000/svg">
<path d="M128 224C150.21 224 171.733 216.299 188.902 202.209C206.07 188.119 217.822 168.512 222.155 146.729C226.488 124.945 223.134 102.333 212.664 82.7459C202.195 63.1584 185.257 47.807 164.738 39.3076C144.218 30.8081 121.386 29.6865 100.133 36.1337C78.8789 42.581 60.5182 56.1982 48.1789 74.6652C35.8397 93.1323 30.2853 115.306 32.4623 137.41C34.6392 159.513 44.4128 180.177 60.1177 195.882" stroke="#0FC0C6" stroke-width="6" stroke-linecap="round"/>
<path d="M170.667 106.667L118.736 168.984C118.08 169.771 117.752 170.164 117.312 170.184C116.871 170.204 116.509 169.842 115.785 169.118L85.3337 138.667" stroke="#0FC0C6" stroke-width="12" stroke-linecap="round"/>
</svg>
