<svg width="32" height="32" viewBox="0 0 32 32" fill="none" xmlns="http://www.w3.org/2000/svg">
<path fill-rule="evenodd" clip-rule="evenodd" d="M28 16C28 22.6274 22.6274 28 16 28C9.37258 28 4 22.6274 4 16C4 9.37258 9.37258 4 16 4C22.6274 4 28 9.37258 28 16ZM9.95956 22.0404C9.56904 21.6499 9.56904 21.0168 9.95956 20.6262L14.5858 16L9.95956 11.3738C9.56904 10.9832 9.56904 10.3501 9.95956 9.95956C10.3501 9.56904 10.9832 9.56904 11.3738 9.95956L16 14.5858L20.6262 9.95956C21.0168 9.56904 21.6499 9.56904 22.0404 9.95956C22.431 10.3501 22.431 10.9832 22.0404 11.3738L17.4142 16L22.0404 20.6262C22.431 21.0168 22.431 21.6499 22.0404 22.0404C21.6499 22.431 21.0168 22.431 20.6262 22.0404L16 17.4142L11.3738 22.0404C10.9832 22.431 10.3501 22.431 9.95956 22.0404Z" fill="white"/>
</svg>
