<svg width="354" height="126" viewBox="0 0 354 126" fill="none" xmlns="http://www.w3.org/2000/svg">
<mask id="path-1-outside-1_997_156" maskUnits="userSpaceOnUse" x="0.199219" y="0.105469" width="354" height="126" fill="black">
<rect fill="white" x="0.199219" y="0.105469" width="354" height="126"/>
<path d="M200.089 124.552C196.089 124.552 192.653 123.752 189.781 122.152C186.944 120.516 184.763 118.225 183.236 115.28C181.708 112.298 180.945 108.79 180.945 104.753C180.945 101.736 181.381 99.0266 182.254 96.6268C183.126 94.1906 184.381 92.118 186.017 90.409C187.653 88.6637 189.653 87.3365 192.017 86.4275C194.417 85.4821 197.107 85.0094 200.089 85.0094C202.089 85.0094 204.052 85.2639 205.979 85.773C207.907 86.2821 209.597 87.0093 211.052 87.9547C211.815 88.4274 212.324 89.0091 212.579 89.7C212.833 90.3545 212.888 91.009 212.743 91.6635C212.597 92.2816 212.288 92.8089 211.815 93.2452C211.379 93.6815 210.815 93.9361 210.125 94.0088C209.47 94.0451 208.743 93.8088 207.943 93.2997C206.816 92.5725 205.598 92.0453 204.289 91.718C202.98 91.3908 201.652 91.2272 200.307 91.2272C197.725 91.2272 195.544 91.7544 193.762 92.8089C191.98 93.8633 190.635 95.3905 189.726 97.3904C188.817 99.3902 188.362 101.845 188.362 104.753C188.362 107.626 188.817 110.08 189.726 112.117C190.635 114.153 191.98 115.698 193.762 116.753C195.544 117.807 197.725 118.334 200.307 118.334C201.689 118.334 203.052 118.171 204.398 117.843C205.743 117.48 207.016 116.934 208.216 116.207C209.016 115.735 209.725 115.535 210.343 115.607C210.997 115.644 211.543 115.862 211.979 116.262C212.415 116.662 212.706 117.171 212.852 117.789C212.997 118.371 212.961 118.989 212.743 119.643C212.524 120.262 212.088 120.807 211.434 121.28C209.979 122.334 208.234 123.152 206.198 123.734C204.198 124.279 202.161 124.552 200.089 124.552ZM222.816 124.007C221.689 124.007 220.816 123.698 220.198 123.079C219.58 122.425 219.271 121.534 219.271 120.407V88.9364C219.271 87.7729 219.561 86.9002 220.143 86.3184C220.761 85.7003 221.634 85.3912 222.761 85.3912C223.888 85.3912 224.743 85.7003 225.325 86.3184C225.943 86.9002 226.252 87.7729 226.252 88.9364V118.062H242.069C243.051 118.062 243.796 118.316 244.305 118.825C244.851 119.334 245.123 120.062 245.123 121.007C245.123 121.952 244.851 122.698 244.305 123.243C243.796 123.752 243.051 124.007 242.069 124.007H222.816ZM253.388 124.443C252.26 124.443 251.388 124.134 250.77 123.516C250.188 122.861 249.897 121.97 249.897 120.843V88.7182C249.897 87.5547 250.188 86.6638 250.77 86.0457C251.388 85.4276 252.26 85.1185 253.388 85.1185C254.515 85.1185 255.369 85.4276 255.951 86.0457C256.569 86.6638 256.878 87.5547 256.878 88.7182V120.843C256.878 121.97 256.587 122.861 256.006 123.516C255.424 124.134 254.551 124.443 253.388 124.443ZM268.563 124.443C267.508 124.443 266.69 124.152 266.108 123.57C265.563 122.989 265.29 122.152 265.29 121.061V88.6092C265.29 87.482 265.563 86.6275 266.108 86.0457C266.69 85.4276 267.435 85.1185 268.344 85.1185C269.181 85.1185 269.799 85.2821 270.199 85.6094C270.635 85.9003 271.144 86.4093 271.726 87.1365L291.197 112.404V88.4455C291.197 87.3911 291.47 86.5729 292.015 85.9912C292.597 85.4094 293.415 85.1185 294.47 85.1185C295.524 85.1185 296.324 85.4094 296.87 85.9912C297.415 86.5729 297.688 87.3911 297.688 88.4455V121.171C297.688 122.189 297.433 122.989 296.924 123.57C296.415 124.152 295.724 124.443 294.852 124.443C294.015 124.443 293.343 124.279 292.834 123.952C292.361 123.625 291.834 123.098 291.252 122.37L271.78 97.0373V121.061C271.78 122.152 271.508 122.989 270.962 123.57C270.417 124.152 269.617 124.443 268.563 124.443ZM309.58 124.443C308.453 124.443 307.581 124.134 306.962 123.516C306.381 122.861 306.09 121.97 306.09 120.843V88.7182C306.09 87.5547 306.381 86.6638 306.962 86.0457C307.581 85.4276 308.453 85.1185 309.58 85.1185C310.708 85.1185 311.562 85.4276 312.144 86.0457C312.762 86.6638 313.071 87.5547 313.071 88.7182V120.843C313.071 121.97 312.78 122.861 312.198 123.516C311.617 124.134 310.744 124.443 309.58 124.443ZM339.373 124.552C335.373 124.552 331.937 123.752 329.064 122.152C326.228 120.516 324.046 118.225 322.519 115.28C320.992 112.298 320.228 108.79 320.228 104.753C320.228 101.736 320.665 99.0266 321.537 96.6268C322.41 94.1906 323.665 92.118 325.301 90.409C326.937 88.6637 328.937 87.3365 331.3 86.4275C333.7 85.4821 336.391 85.0094 339.373 85.0094C341.372 85.0094 343.336 85.2639 345.263 85.773C347.19 86.2821 348.881 87.0093 350.335 87.9547C351.099 88.4274 351.608 89.0091 351.863 89.7C352.117 90.3545 352.172 91.009 352.026 91.6635C351.881 92.2816 351.572 92.8089 351.099 93.2452C350.663 93.6815 350.099 93.9361 349.408 94.0088C348.754 94.0451 348.027 93.8088 347.227 93.2997C346.099 92.5725 344.881 92.0453 343.572 91.718C342.263 91.3908 340.936 91.2272 339.591 91.2272C337.009 91.2272 334.827 91.7544 333.046 92.8089C331.264 93.8633 329.919 95.3905 329.01 97.3904C328.101 99.3902 327.646 101.845 327.646 104.753C327.646 107.626 328.101 110.08 329.01 112.117C329.919 114.153 331.264 115.698 333.046 116.753C334.827 117.807 337.009 118.334 339.591 118.334C340.972 118.334 342.336 118.171 343.681 117.843C345.027 117.48 346.299 116.934 347.499 116.207C348.299 115.735 349.008 115.535 349.626 115.607C350.281 115.644 350.826 115.862 351.263 116.262C351.699 116.662 351.99 117.171 352.135 117.789C352.281 118.371 352.244 118.989 352.026 119.643C351.808 120.262 351.372 120.807 350.717 121.28C349.263 122.334 347.517 123.152 345.481 123.734C343.481 124.279 341.445 124.552 339.373 124.552Z"/>
<path d="M5.90805 40.9937C4.70814 40.9937 3.78093 40.6846 3.12643 40.0665C2.50829 39.412 2.19922 38.4848 2.19922 37.2848V6.25064C2.19922 5.05072 2.50829 4.14169 3.12643 3.52355C3.78093 2.86905 4.70814 2.5418 5.90805 2.5418H25.3794C26.2885 2.5418 26.9793 2.77815 27.452 3.25085C27.9611 3.72354 28.2156 4.39622 28.2156 5.26889C28.2156 6.17791 27.9611 6.88696 27.452 7.39601C26.9793 7.86871 26.2885 8.10505 25.3794 8.10505H8.90784V18.6861H24.1795C25.1249 18.6861 25.8339 18.9225 26.3066 19.3952C26.7793 19.8679 27.0157 20.5587 27.0157 21.4678C27.0157 22.3768 26.7793 23.0677 26.3066 23.5403C25.8339 24.013 25.1249 24.2494 24.1795 24.2494H8.90784V35.4304H25.3794C26.2885 35.4304 26.9793 35.6668 27.452 36.1395C27.9611 36.6122 28.2156 37.303 28.2156 38.2121C28.2156 39.1211 27.9611 39.8119 27.452 40.2846C26.9793 40.7573 26.2885 40.9937 25.3794 40.9937H5.90805ZM38.2338 41.43C37.1066 41.43 36.2339 41.1209 35.6158 40.5028C35.034 39.8483 34.7431 38.9575 34.7431 37.8303V5.65068C34.7431 4.48712 35.034 3.61446 35.6158 3.03268C36.2339 2.41454 37.1066 2.10547 38.2338 2.10547C39.361 2.10547 40.2155 2.41454 40.7973 3.03268C41.4154 3.61446 41.7245 4.48712 41.7245 5.65068V19.5588H41.8335L57.487 3.8508C58.0688 3.26903 58.6506 2.83269 59.2323 2.5418C59.8141 2.25091 60.4686 2.10547 61.1958 2.10547C62.2503 2.10547 62.9957 2.37818 63.432 2.9236C63.9047 3.46901 64.0865 4.10533 63.9775 4.83255C63.9047 5.55978 63.5593 6.23246 62.9412 6.85059L48.6449 21L63.7048 36.3576C64.4683 37.0849 64.8683 37.8484 64.9047 38.6484C64.941 39.4483 64.6865 40.121 64.1411 40.6664C63.632 41.1755 62.8684 41.43 61.8503 41.43C60.9777 41.43 60.2686 41.2482 59.7232 40.8846C59.2142 40.521 58.6142 39.9938 57.9233 39.3029L41.8335 23.2131H41.7245V37.8303C41.7245 38.9575 41.4336 39.8483 40.8518 40.5028C40.27 41.1209 39.3973 41.43 38.2338 41.43ZM70.0124 41.43C69.1397 41.43 68.4307 41.23 67.8853 40.8301C67.3762 40.4301 67.0672 39.9028 66.9581 39.2483C66.849 38.5575 66.9763 37.7939 67.3399 36.9576L81.7389 5.05072C82.2116 3.99625 82.7752 3.25085 83.4297 2.81451C84.1205 2.34182 84.9023 2.10547 85.7749 2.10547C86.6113 2.10547 87.3567 2.34182 88.0112 2.81451C88.702 3.25085 89.2838 3.99625 89.7565 5.05072L104.21 36.9576C104.61 37.7939 104.755 38.5575 104.646 39.2483C104.537 39.9392 104.228 40.4846 103.719 40.8846C103.21 41.2482 102.537 41.43 101.701 41.43C100.683 41.43 99.8831 41.1937 99.3013 40.721C98.7559 40.2119 98.265 39.4483 97.8287 38.4302L95.187 32.1034H76.2604L73.6667 38.4302C73.194 39.4847 72.7031 40.2483 72.1941 40.721C71.685 41.1937 70.9578 41.43 70.0124 41.43ZM85.6659 10.1231L78.7309 26.5401H92.7024L85.7749 10.1231H85.6659Z"/>
<path d="M70.4701 81.0002C69.4884 81.0002 68.7298 80.7473 68.1943 80.2416C67.6885 79.7061 67.4356 78.9474 67.4356 77.9657V52.5741C67.4356 51.5923 67.6885 50.8486 68.1943 50.3428C68.7298 49.8073 69.4884 49.5396 70.4701 49.5396H79.1274C84.3931 49.5396 88.454 50.8932 91.31 53.6004C94.1958 56.3077 95.6386 60.1901 95.6386 65.2476C95.6386 67.7763 95.2668 70.0224 94.523 71.9859C93.809 73.9197 92.738 75.5559 91.31 76.8947C89.9118 78.2334 88.1863 79.2598 86.1335 79.9738C84.1105 80.6581 81.7751 81.0002 79.1274 81.0002H70.4701ZM73.1476 76.2699H78.7704C80.6149 76.2699 82.2065 76.0468 83.5453 75.6006C84.9138 75.1246 86.0443 74.4403 86.9368 73.5478C87.859 72.6256 88.5433 71.4802 88.9895 70.1117C89.4358 68.7134 89.6589 67.0921 89.6589 65.2476C89.6589 61.5586 88.7515 58.8067 86.9368 56.9919C85.122 55.1772 82.3999 54.2698 78.7704 54.2698H73.1476V76.2699Z"/>
<path d="M104.462 81.0002C103.48 81.0002 102.721 80.7473 102.186 80.2416C101.68 79.7061 101.427 78.9474 101.427 77.9657V52.5741C101.427 51.5923 101.68 50.8486 102.186 50.3428C102.721 49.8073 103.48 49.5396 104.462 49.5396H120.393C121.137 49.5396 121.702 49.7329 122.089 50.1197C122.505 50.5064 122.713 51.0568 122.713 51.7708C122.713 52.5146 122.505 53.0947 122.089 53.5112C121.702 53.8979 121.137 54.0913 120.393 54.0913H106.916V62.7486H119.411C120.185 62.7486 120.765 62.9419 121.152 63.3287C121.538 63.7154 121.732 64.2807 121.732 65.0244C121.732 65.7682 121.538 66.3334 121.152 66.7202C120.765 67.1069 120.185 67.3003 119.411 67.3003H106.916V76.4484H120.393C121.137 76.4484 121.702 76.6418 122.089 77.0286C122.505 77.4153 122.713 77.9806 122.713 78.7243C122.713 79.4681 122.505 80.0333 122.089 80.4201C121.702 80.8068 121.137 81.0002 120.393 81.0002H104.462Z"/>
<path d="M130.732 81.3572C129.869 81.3572 129.2 81.1192 128.724 80.6432C128.277 80.1672 128.054 79.4829 128.054 78.5904V52.0386C128.054 51.1163 128.277 50.4172 128.724 49.9412C129.2 49.4354 129.809 49.1826 130.553 49.1826C131.237 49.1826 131.743 49.3164 132.07 49.5842C132.427 49.8222 132.844 50.2387 133.32 50.8337L150.411 73.0123H149.251V51.9047C149.251 51.0419 149.474 50.3726 149.92 49.8966C150.396 49.4206 151.066 49.1826 151.929 49.1826C152.791 49.1826 153.446 49.4206 153.892 49.8966C154.338 50.3726 154.561 51.0419 154.561 51.9047V78.6797C154.561 79.5127 154.353 80.1672 153.937 80.6432C153.52 81.1192 152.955 81.3572 152.241 81.3572C151.557 81.3572 151.006 81.2233 150.59 80.9556C150.203 80.6878 149.772 80.2564 149.296 79.6614L132.249 57.4828H133.365V78.5904C133.365 79.4829 133.141 80.1672 132.695 80.6432C132.249 81.1192 131.594 81.3572 130.732 81.3572Z"/>
<path d="M171.878 81.3572C170.956 81.3572 170.242 81.1043 169.736 80.5986C169.26 80.0631 169.022 79.3342 169.022 78.4119V54.3144H160.32C159.547 54.3144 158.937 54.1062 158.491 53.6897C158.074 53.2434 157.866 52.6484 157.866 51.9047C157.866 51.1312 158.074 50.5511 158.491 50.1643C158.937 49.7478 159.547 49.5396 160.32 49.5396H183.436C184.209 49.5396 184.804 49.7478 185.221 50.1643C185.667 50.5511 185.89 51.1312 185.89 51.9047C185.89 52.6484 185.667 53.2434 185.221 53.6897C184.804 54.1062 184.209 54.3144 183.436 54.3144H174.734V78.4119C174.734 79.3342 174.496 80.0631 174.02 80.5986C173.544 81.1043 172.83 81.3572 171.878 81.3572Z"/>
<path d="M185.978 81.3572C185.264 81.3572 184.684 81.1936 184.238 80.8663C183.821 80.5391 183.568 80.1077 183.479 79.5722C183.39 79.0069 183.494 78.3822 183.791 77.6979L195.572 51.5923C195.959 50.7296 196.42 50.1197 196.956 49.7627C197.521 49.3759 198.161 49.1826 198.875 49.1826C199.559 49.1826 200.169 49.3759 200.704 49.7627C201.27 50.1197 201.746 50.7296 202.132 51.5923L213.958 77.6979C214.285 78.3822 214.404 79.0069 214.315 79.5722C214.226 80.1374 213.973 80.5837 213.556 80.9109C213.14 81.2084 212.589 81.3572 211.905 81.3572C211.072 81.3572 210.418 81.1638 209.942 80.7771C209.495 80.3606 209.094 79.7358 208.737 78.9028L205.836 72.1644L208.246 73.7263H189.414L191.824 72.1644L188.968 78.9028C188.581 79.7656 188.18 80.3903 187.763 80.7771C187.347 81.1638 186.752 81.3572 185.978 81.3572ZM198.785 55.7424L192.538 70.6026L191.378 69.1746H206.282L205.167 70.6026L198.875 55.7424H198.785Z"/>
<path d="M221.774 81.0002C220.851 81.0002 220.137 80.7473 219.632 80.2416C219.126 79.7061 218.873 78.9772 218.873 78.0549V52.3063C218.873 51.3543 219.111 50.6403 219.587 50.1643C220.093 49.6586 220.807 49.4057 221.729 49.4057C222.651 49.4057 223.35 49.6586 223.826 50.1643C224.332 50.6403 224.585 51.3543 224.585 52.3063V76.1361H237.526C238.33 76.1361 238.939 76.3443 239.356 76.7608C239.802 77.1773 240.025 77.7723 240.025 78.5458C240.025 79.3193 239.802 79.9292 239.356 80.3755C238.939 80.792 238.33 81.0002 237.526 81.0002H221.774Z"/>
</mask>
<path d="M70.4701 81.0002C69.4884 81.0002 68.7298 80.7473 68.1943 80.2416C67.6885 79.7061 67.4356 78.9474 67.4356 77.9657V52.5741C67.4356 51.5923 67.6885 50.8486 68.1943 50.3428C68.7298 49.8073 69.4884 49.5396 70.4701 49.5396H79.1274C84.3931 49.5396 88.454 50.8932 91.31 53.6004C94.1958 56.3077 95.6386 60.1901 95.6386 65.2476C95.6386 67.7763 95.2668 70.0224 94.523 71.9859C93.809 73.9197 92.738 75.5559 91.31 76.8947C89.9118 78.2334 88.1863 79.2598 86.1335 79.9738C84.1105 80.6581 81.7751 81.0002 79.1274 81.0002H70.4701ZM73.1476 76.2699H78.7704C80.6149 76.2699 82.2065 76.0468 83.5453 75.6006C84.9138 75.1246 86.0443 74.4403 86.9368 73.5478C87.859 72.6256 88.5433 71.4802 88.9895 70.1117C89.4358 68.7134 89.6589 67.0921 89.6589 65.2476C89.6589 61.5586 88.7515 58.8067 86.9368 56.9919C85.122 55.1772 82.3999 54.2698 78.7704 54.2698H73.1476V76.2699Z" fill="white"/>
<path d="M104.462 81.0002C103.48 81.0002 102.721 80.7473 102.186 80.2416C101.68 79.7061 101.427 78.9474 101.427 77.9657V52.5741C101.427 51.5923 101.68 50.8486 102.186 50.3428C102.721 49.8073 103.48 49.5396 104.462 49.5396H120.393C121.137 49.5396 121.702 49.7329 122.089 50.1197C122.505 50.5064 122.713 51.0568 122.713 51.7708C122.713 52.5146 122.505 53.0947 122.089 53.5112C121.702 53.8979 121.137 54.0913 120.393 54.0913H106.916V62.7486H119.411C120.185 62.7486 120.765 62.9419 121.152 63.3287C121.538 63.7154 121.732 64.2807 121.732 65.0244C121.732 65.7682 121.538 66.3334 121.152 66.7202C120.765 67.1069 120.185 67.3003 119.411 67.3003H106.916V76.4484H120.393C121.137 76.4484 121.702 76.6418 122.089 77.0286C122.505 77.4153 122.713 77.9806 122.713 78.7243C122.713 79.4681 122.505 80.0333 122.089 80.4201C121.702 80.8068 121.137 81.0002 120.393 81.0002H104.462Z" fill="white"/>
<path d="M130.732 81.3572C129.869 81.3572 129.2 81.1192 128.724 80.6432C128.277 80.1672 128.054 79.4829 128.054 78.5904V52.0386C128.054 51.1163 128.277 50.4172 128.724 49.9412C129.2 49.4354 129.809 49.1826 130.553 49.1826C131.237 49.1826 131.743 49.3164 132.07 49.5842C132.427 49.8222 132.844 50.2387 133.32 50.8337L150.411 73.0123H149.251V51.9047C149.251 51.0419 149.474 50.3726 149.92 49.8966C150.396 49.4206 151.066 49.1826 151.929 49.1826C152.791 49.1826 153.446 49.4206 153.892 49.8966C154.338 50.3726 154.561 51.0419 154.561 51.9047V78.6797C154.561 79.5127 154.353 80.1672 153.937 80.6432C153.52 81.1192 152.955 81.3572 152.241 81.3572C151.557 81.3572 151.006 81.2233 150.59 80.9556C150.203 80.6878 149.772 80.2564 149.296 79.6614L132.249 57.4828H133.365V78.5904C133.365 79.4829 133.141 80.1672 132.695 80.6432C132.249 81.1192 131.594 81.3572 130.732 81.3572Z" fill="white"/>
<path d="M171.878 81.3572C170.956 81.3572 170.242 81.1043 169.736 80.5986C169.26 80.0631 169.022 79.3342 169.022 78.4119V54.3144H160.32C159.547 54.3144 158.937 54.1062 158.491 53.6897C158.074 53.2434 157.866 52.6484 157.866 51.9047C157.866 51.1312 158.074 50.5511 158.491 50.1643C158.937 49.7478 159.547 49.5396 160.32 49.5396H183.436C184.209 49.5396 184.804 49.7478 185.221 50.1643C185.667 50.5511 185.89 51.1312 185.89 51.9047C185.89 52.6484 185.667 53.2434 185.221 53.6897C184.804 54.1062 184.209 54.3144 183.436 54.3144H174.734V78.4119C174.734 79.3342 174.496 80.0631 174.02 80.5986C173.544 81.1043 172.83 81.3572 171.878 81.3572Z" fill="white"/>
<path d="M185.978 81.3572C185.264 81.3572 184.684 81.1936 184.238 80.8663C183.821 80.5391 183.568 80.1077 183.479 79.5722C183.39 79.0069 183.494 78.3822 183.791 77.6979L195.572 51.5923C195.959 50.7296 196.42 50.1197 196.956 49.7627C197.521 49.3759 198.161 49.1826 198.875 49.1826C199.559 49.1826 200.169 49.3759 200.704 49.7627C201.27 50.1197 201.746 50.7296 202.132 51.5923L213.958 77.6979C214.285 78.3822 214.404 79.0069 214.315 79.5722C214.226 80.1374 213.973 80.5837 213.556 80.9109C213.14 81.2084 212.589 81.3572 211.905 81.3572C211.072 81.3572 210.418 81.1638 209.942 80.7771C209.495 80.3606 209.094 79.7358 208.737 78.9028L205.836 72.1644L208.246 73.7263H189.414L191.824 72.1644L188.968 78.9028C188.581 79.7656 188.18 80.3903 187.763 80.7771C187.347 81.1638 186.752 81.3572 185.978 81.3572ZM198.785 55.7424L192.538 70.6026L191.378 69.1746H206.282L205.167 70.6026L198.875 55.7424H198.785Z" fill="white"/>
<path d="M221.774 81.0002C220.851 81.0002 220.137 80.7473 219.632 80.2416C219.126 79.7061 218.873 78.9772 218.873 78.0549V52.3063C218.873 51.3543 219.111 50.6403 219.587 50.1643C220.093 49.6586 220.807 49.4057 221.729 49.4057C222.651 49.4057 223.35 49.6586 223.826 50.1643C224.332 50.6403 224.585 51.3543 224.585 52.3063V76.1361H237.526C238.33 76.1361 238.939 76.3443 239.356 76.7608C239.802 77.1773 240.025 77.7723 240.025 78.5458C240.025 79.3193 239.802 79.9292 239.356 80.3755C238.939 80.792 238.33 81.0002 237.526 81.0002H221.774Z" fill="white"/>
<path d="M200.089 124.552C196.089 124.552 192.653 123.752 189.781 122.152C186.944 120.516 184.763 118.225 183.236 115.28C181.708 112.298 180.945 108.79 180.945 104.753C180.945 101.736 181.381 99.0266 182.254 96.6268C183.126 94.1906 184.381 92.118 186.017 90.409C187.653 88.6637 189.653 87.3365 192.017 86.4275C194.417 85.4821 197.107 85.0094 200.089 85.0094C202.089 85.0094 204.052 85.2639 205.979 85.773C207.907 86.2821 209.597 87.0093 211.052 87.9547C211.815 88.4274 212.324 89.0091 212.579 89.7C212.833 90.3545 212.888 91.009 212.743 91.6635C212.597 92.2816 212.288 92.8089 211.815 93.2452C211.379 93.6815 210.815 93.9361 210.125 94.0088C209.47 94.0451 208.743 93.8088 207.943 93.2997C206.816 92.5725 205.598 92.0453 204.289 91.718C202.98 91.3908 201.652 91.2272 200.307 91.2272C197.725 91.2272 195.544 91.7544 193.762 92.8089C191.98 93.8633 190.635 95.3905 189.726 97.3904C188.817 99.3902 188.362 101.845 188.362 104.753C188.362 107.626 188.817 110.08 189.726 112.117C190.635 114.153 191.98 115.698 193.762 116.753C195.544 117.807 197.725 118.334 200.307 118.334C201.689 118.334 203.052 118.171 204.398 117.843C205.743 117.48 207.016 116.934 208.216 116.207C209.016 115.735 209.725 115.535 210.343 115.607C210.997 115.644 211.543 115.862 211.979 116.262C212.415 116.662 212.706 117.171 212.852 117.789C212.997 118.371 212.961 118.989 212.743 119.643C212.524 120.262 212.088 120.807 211.434 121.28C209.979 122.334 208.234 123.152 206.198 123.734C204.198 124.279 202.161 124.552 200.089 124.552ZM222.816 124.007C221.689 124.007 220.816 123.698 220.198 123.079C219.58 122.425 219.271 121.534 219.271 120.407V88.9364C219.271 87.7729 219.561 86.9002 220.143 86.3184C220.761 85.7003 221.634 85.3912 222.761 85.3912C223.888 85.3912 224.743 85.7003 225.325 86.3184C225.943 86.9002 226.252 87.7729 226.252 88.9364V118.062H242.069C243.051 118.062 243.796 118.316 244.305 118.825C244.851 119.334 245.123 120.062 245.123 121.007C245.123 121.952 244.851 122.698 244.305 123.243C243.796 123.752 243.051 124.007 242.069 124.007H222.816ZM253.388 124.443C252.26 124.443 251.388 124.134 250.77 123.516C250.188 122.861 249.897 121.97 249.897 120.843V88.7182C249.897 87.5547 250.188 86.6638 250.77 86.0457C251.388 85.4276 252.26 85.1185 253.388 85.1185C254.515 85.1185 255.369 85.4276 255.951 86.0457C256.569 86.6638 256.878 87.5547 256.878 88.7182V120.843C256.878 121.97 256.587 122.861 256.006 123.516C255.424 124.134 254.551 124.443 253.388 124.443ZM268.563 124.443C267.508 124.443 266.69 124.152 266.108 123.57C265.563 122.989 265.29 122.152 265.29 121.061V88.6092C265.29 87.482 265.563 86.6275 266.108 86.0457C266.69 85.4276 267.435 85.1185 268.344 85.1185C269.181 85.1185 269.799 85.2821 270.199 85.6094C270.635 85.9003 271.144 86.4093 271.726 87.1365L291.197 112.404V88.4455C291.197 87.3911 291.47 86.5729 292.015 85.9912C292.597 85.4094 293.415 85.1185 294.47 85.1185C295.524 85.1185 296.324 85.4094 296.87 85.9912C297.415 86.5729 297.688 87.3911 297.688 88.4455V121.171C297.688 122.189 297.433 122.989 296.924 123.57C296.415 124.152 295.724 124.443 294.852 124.443C294.015 124.443 293.343 124.279 292.834 123.952C292.361 123.625 291.834 123.098 291.252 122.37L271.78 97.0373V121.061C271.78 122.152 271.508 122.989 270.962 123.57C270.417 124.152 269.617 124.443 268.563 124.443ZM309.58 124.443C308.453 124.443 307.581 124.134 306.962 123.516C306.381 122.861 306.09 121.97 306.09 120.843V88.7182C306.09 87.5547 306.381 86.6638 306.962 86.0457C307.581 85.4276 308.453 85.1185 309.58 85.1185C310.708 85.1185 311.562 85.4276 312.144 86.0457C312.762 86.6638 313.071 87.5547 313.071 88.7182V120.843C313.071 121.97 312.78 122.861 312.198 123.516C311.617 124.134 310.744 124.443 309.58 124.443ZM339.373 124.552C335.373 124.552 331.937 123.752 329.064 122.152C326.228 120.516 324.046 118.225 322.519 115.28C320.992 112.298 320.228 108.79 320.228 104.753C320.228 101.736 320.665 99.0266 321.537 96.6268C322.41 94.1906 323.665 92.118 325.301 90.409C326.937 88.6637 328.937 87.3365 331.3 86.4275C333.7 85.4821 336.391 85.0094 339.373 85.0094C341.372 85.0094 343.336 85.2639 345.263 85.773C347.19 86.2821 348.881 87.0093 350.335 87.9547C351.099 88.4274 351.608 89.0091 351.863 89.7C352.117 90.3545 352.172 91.009 352.026 91.6635C351.881 92.2816 351.572 92.8089 351.099 93.2452C350.663 93.6815 350.099 93.9361 349.408 94.0088C348.754 94.0451 348.027 93.8088 347.227 93.2997C346.099 92.5725 344.881 92.0453 343.572 91.718C342.263 91.3908 340.936 91.2272 339.591 91.2272C337.009 91.2272 334.827 91.7544 333.046 92.8089C331.264 93.8633 329.919 95.3905 329.01 97.3904C328.101 99.3902 327.646 101.845 327.646 104.753C327.646 107.626 328.101 110.08 329.01 112.117C329.919 114.153 331.264 115.698 333.046 116.753C334.827 117.807 337.009 118.334 339.591 118.334C340.972 118.334 342.336 118.171 343.681 117.843C345.027 117.48 346.299 116.934 347.499 116.207C348.299 115.735 349.008 115.535 349.626 115.607C350.281 115.644 350.826 115.862 351.263 116.262C351.699 116.662 351.99 117.171 352.135 117.789C352.281 118.371 352.244 118.989 352.026 119.643C351.808 120.262 351.372 120.807 350.717 121.28C349.263 122.334 347.517 123.152 345.481 123.734C343.481 124.279 341.445 124.552 339.373 124.552Z" stroke="white" stroke-width="2.47917" mask="url(#path-1-outside-1_997_156)"/>
<path d="M5.90805 40.9937C4.70814 40.9937 3.78093 40.6846 3.12643 40.0665C2.50829 39.412 2.19922 38.4848 2.19922 37.2848V6.25064C2.19922 5.05072 2.50829 4.14169 3.12643 3.52355C3.78093 2.86905 4.70814 2.5418 5.90805 2.5418H25.3794C26.2885 2.5418 26.9793 2.77815 27.452 3.25085C27.9611 3.72354 28.2156 4.39622 28.2156 5.26889C28.2156 6.17791 27.9611 6.88696 27.452 7.39601C26.9793 7.86871 26.2885 8.10505 25.3794 8.10505H8.90784V18.6861H24.1795C25.1249 18.6861 25.8339 18.9225 26.3066 19.3952C26.7793 19.8679 27.0157 20.5587 27.0157 21.4678C27.0157 22.3768 26.7793 23.0677 26.3066 23.5403C25.8339 24.013 25.1249 24.2494 24.1795 24.2494H8.90784V35.4304H25.3794C26.2885 35.4304 26.9793 35.6668 27.452 36.1395C27.9611 36.6122 28.2156 37.303 28.2156 38.2121C28.2156 39.1211 27.9611 39.8119 27.452 40.2846C26.9793 40.7573 26.2885 40.9937 25.3794 40.9937H5.90805ZM38.2338 41.43C37.1066 41.43 36.2339 41.1209 35.6158 40.5028C35.034 39.8483 34.7431 38.9575 34.7431 37.8303V5.65068C34.7431 4.48712 35.034 3.61446 35.6158 3.03268C36.2339 2.41454 37.1066 2.10547 38.2338 2.10547C39.361 2.10547 40.2155 2.41454 40.7973 3.03268C41.4154 3.61446 41.7245 4.48712 41.7245 5.65068V19.5588H41.8335L57.487 3.8508C58.0688 3.26903 58.6506 2.83269 59.2323 2.5418C59.8141 2.25091 60.4686 2.10547 61.1958 2.10547C62.2503 2.10547 62.9957 2.37818 63.432 2.9236C63.9047 3.46901 64.0865 4.10533 63.9775 4.83255C63.9047 5.55978 63.5593 6.23246 62.9412 6.85059L48.6449 21L63.7048 36.3576C64.4683 37.0849 64.8683 37.8484 64.9047 38.6484C64.941 39.4483 64.6865 40.121 64.1411 40.6664C63.632 41.1755 62.8684 41.43 61.8503 41.43C60.9777 41.43 60.2686 41.2482 59.7232 40.8846C59.2142 40.521 58.6142 39.9938 57.9233 39.3029L41.8335 23.2131H41.7245V37.8303C41.7245 38.9575 41.4336 39.8483 40.8518 40.5028C40.27 41.1209 39.3973 41.43 38.2338 41.43ZM70.0124 41.43C69.1397 41.43 68.4307 41.23 67.8853 40.8301C67.3762 40.4301 67.0672 39.9028 66.9581 39.2483C66.849 38.5575 66.9763 37.7939 67.3399 36.9576L81.7389 5.05072C82.2116 3.99625 82.7752 3.25085 83.4297 2.81451C84.1205 2.34182 84.9023 2.10547 85.7749 2.10547C86.6113 2.10547 87.3567 2.34182 88.0112 2.81451C88.702 3.25085 89.2838 3.99625 89.7565 5.05072L104.21 36.9576C104.61 37.7939 104.755 38.5575 104.646 39.2483C104.537 39.9392 104.228 40.4846 103.719 40.8846C103.21 41.2482 102.537 41.43 101.701 41.43C100.683 41.43 99.8831 41.1937 99.3013 40.721C98.7559 40.2119 98.265 39.4483 97.8287 38.4302L95.187 32.1034H76.2604L73.6667 38.4302C73.194 39.4847 72.7031 40.2483 72.1941 40.721C71.685 41.1937 70.9578 41.43 70.0124 41.43ZM85.6659 10.1231L78.7309 26.5401H92.7024L85.7749 10.1231H85.6659Z" stroke="white" stroke-width="2.47917" mask="url(#path-1-outside-1_997_156)"/>
<path d="M70.4701 81.0002C69.4884 81.0002 68.7298 80.7473 68.1943 80.2416C67.6885 79.7061 67.4356 78.9474 67.4356 77.9657V52.5741C67.4356 51.5923 67.6885 50.8486 68.1943 50.3428C68.7298 49.8073 69.4884 49.5396 70.4701 49.5396H79.1274C84.3931 49.5396 88.454 50.8932 91.31 53.6004C94.1958 56.3077 95.6386 60.1901 95.6386 65.2476C95.6386 67.7763 95.2668 70.0224 94.523 71.9859C93.809 73.9197 92.738 75.5559 91.31 76.8947C89.9118 78.2334 88.1863 79.2598 86.1335 79.9738C84.1105 80.6581 81.7751 81.0002 79.1274 81.0002H70.4701ZM73.1476 76.2699H78.7704C80.6149 76.2699 82.2065 76.0468 83.5453 75.6006C84.9138 75.1246 86.0443 74.4403 86.9368 73.5478C87.859 72.6256 88.5433 71.4802 88.9895 70.1117C89.4358 68.7134 89.6589 67.0921 89.6589 65.2476C89.6589 61.5586 88.7515 58.8067 86.9368 56.9919C85.122 55.1772 82.3999 54.2698 78.7704 54.2698H73.1476V76.2699Z" stroke="white" stroke-width="2.47917" mask="url(#path-1-outside-1_997_156)"/>
<path d="M104.462 81.0002C103.48 81.0002 102.721 80.7473 102.186 80.2416C101.68 79.7061 101.427 78.9474 101.427 77.9657V52.5741C101.427 51.5923 101.68 50.8486 102.186 50.3428C102.721 49.8073 103.48 49.5396 104.462 49.5396H120.393C121.137 49.5396 121.702 49.7329 122.089 50.1197C122.505 50.5064 122.713 51.0568 122.713 51.7708C122.713 52.5146 122.505 53.0947 122.089 53.5112C121.702 53.8979 121.137 54.0913 120.393 54.0913H106.916V62.7486H119.411C120.185 62.7486 120.765 62.9419 121.152 63.3287C121.538 63.7154 121.732 64.2807 121.732 65.0244C121.732 65.7682 121.538 66.3334 121.152 66.7202C120.765 67.1069 120.185 67.3003 119.411 67.3003H106.916V76.4484H120.393C121.137 76.4484 121.702 76.6418 122.089 77.0286C122.505 77.4153 122.713 77.9806 122.713 78.7243C122.713 79.4681 122.505 80.0333 122.089 80.4201C121.702 80.8068 121.137 81.0002 120.393 81.0002H104.462Z" stroke="white" stroke-width="2.47917" mask="url(#path-1-outside-1_997_156)"/>
<path d="M130.732 81.3572C129.869 81.3572 129.2 81.1192 128.724 80.6432C128.277 80.1672 128.054 79.4829 128.054 78.5904V52.0386C128.054 51.1163 128.277 50.4172 128.724 49.9412C129.2 49.4354 129.809 49.1826 130.553 49.1826C131.237 49.1826 131.743 49.3164 132.07 49.5842C132.427 49.8222 132.844 50.2387 133.32 50.8337L150.411 73.0123H149.251V51.9047C149.251 51.0419 149.474 50.3726 149.92 49.8966C150.396 49.4206 151.066 49.1826 151.929 49.1826C152.791 49.1826 153.446 49.4206 153.892 49.8966C154.338 50.3726 154.561 51.0419 154.561 51.9047V78.6797C154.561 79.5127 154.353 80.1672 153.937 80.6432C153.52 81.1192 152.955 81.3572 152.241 81.3572C151.557 81.3572 151.006 81.2233 150.59 80.9556C150.203 80.6878 149.772 80.2564 149.296 79.6614L132.249 57.4828H133.365V78.5904C133.365 79.4829 133.141 80.1672 132.695 80.6432C132.249 81.1192 131.594 81.3572 130.732 81.3572Z" stroke="white" stroke-width="2.47917" mask="url(#path-1-outside-1_997_156)"/>
<path d="M171.878 81.3572C170.956 81.3572 170.242 81.1043 169.736 80.5986C169.26 80.0631 169.022 79.3342 169.022 78.4119V54.3144H160.32C159.547 54.3144 158.937 54.1062 158.491 53.6897C158.074 53.2434 157.866 52.6484 157.866 51.9047C157.866 51.1312 158.074 50.5511 158.491 50.1643C158.937 49.7478 159.547 49.5396 160.32 49.5396H183.436C184.209 49.5396 184.804 49.7478 185.221 50.1643C185.667 50.5511 185.89 51.1312 185.89 51.9047C185.89 52.6484 185.667 53.2434 185.221 53.6897C184.804 54.1062 184.209 54.3144 183.436 54.3144H174.734V78.4119C174.734 79.3342 174.496 80.0631 174.02 80.5986C173.544 81.1043 172.83 81.3572 171.878 81.3572Z" stroke="white" stroke-width="2.47917" mask="url(#path-1-outside-1_997_156)"/>
<path d="M185.978 81.3572C185.264 81.3572 184.684 81.1936 184.238 80.8663C183.821 80.5391 183.568 80.1077 183.479 79.5722C183.39 79.0069 183.494 78.3822 183.791 77.6979L195.572 51.5923C195.959 50.7296 196.42 50.1197 196.956 49.7627C197.521 49.3759 198.161 49.1826 198.875 49.1826C199.559 49.1826 200.169 49.3759 200.704 49.7627C201.27 50.1197 201.746 50.7296 202.132 51.5923L213.958 77.6979C214.285 78.3822 214.404 79.0069 214.315 79.5722C214.226 80.1374 213.973 80.5837 213.556 80.9109C213.14 81.2084 212.589 81.3572 211.905 81.3572C211.072 81.3572 210.418 81.1638 209.942 80.7771C209.495 80.3606 209.094 79.7358 208.737 78.9028L205.836 72.1644L208.246 73.7263H189.414L191.824 72.1644L188.968 78.9028C188.581 79.7656 188.18 80.3903 187.763 80.7771C187.347 81.1638 186.752 81.3572 185.978 81.3572ZM198.785 55.7424L192.538 70.6026L191.378 69.1746H206.282L205.167 70.6026L198.875 55.7424H198.785Z" stroke="white" stroke-width="2.47917" mask="url(#path-1-outside-1_997_156)"/>
<path d="M221.774 81.0002C220.851 81.0002 220.137 80.7473 219.632 80.2416C219.126 79.7061 218.873 78.9772 218.873 78.0549V52.3063C218.873 51.3543 219.111 50.6403 219.587 50.1643C220.093 49.6586 220.807 49.4057 221.729 49.4057C222.651 49.4057 223.35 49.6586 223.826 50.1643C224.332 50.6403 224.585 51.3543 224.585 52.3063V76.1361H237.526C238.33 76.1361 238.939 76.3443 239.356 76.7608C239.802 77.1773 240.025 77.7723 240.025 78.5458C240.025 79.3193 239.802 79.9292 239.356 80.3755C238.939 80.792 238.33 81.0002 237.526 81.0002H221.774Z" stroke="white" stroke-width="2.47917" mask="url(#path-1-outside-1_997_156)"/>
</svg>
