<svg width="357" height="136" viewBox="0 0 357 136" fill="none" xmlns="http://www.w3.org/2000/svg">
<path d="M191.781 125.152L191.162 126.226L191.17 126.23L191.178 126.235L191.781 125.152ZM185.236 118.28L184.133 118.845L184.136 118.85L185.236 118.28ZM184.254 99.6266L185.419 100.05L185.421 100.045L184.254 99.6266ZM188.018 93.4088L188.913 94.2661L188.922 94.2566L188.018 93.4088ZM194.017 89.4273L194.462 90.5843L194.472 90.5806L194.017 89.4273ZM207.98 88.7728L207.663 89.9712L207.98 88.7728ZM213.052 90.9544L212.377 91.9937L212.388 92.0012L212.4 92.0084L213.052 90.9544ZM214.579 92.6998L213.416 93.1283L213.42 93.1387L213.424 93.149L214.579 92.6998ZM214.743 94.6633L215.95 94.9472L215.951 94.9397L215.953 94.9322L214.743 94.6633ZM213.816 96.245L212.975 95.3341L212.957 95.3509L212.939 95.3685L213.816 96.245ZM212.125 97.0086L212.194 98.2462L212.224 98.2445L212.255 98.2413L212.125 97.0086ZM209.943 96.2995L209.271 97.3411L209.278 97.3453L209.943 96.2995ZM206.289 94.7178L206.59 93.5152H206.59L206.289 94.7178ZM195.763 95.8086L195.131 94.7419L195.763 95.8086ZM191.726 100.39L190.598 99.8772L191.726 100.39ZM191.726 115.116L190.595 115.622L191.726 115.116ZM195.763 119.752L195.131 120.819L195.763 119.752ZM206.398 120.843L206.691 122.048L206.706 122.044L206.722 122.04L206.398 120.843ZM210.216 119.207L209.585 118.14L209.574 118.147L210.216 119.207ZM212.343 118.607L212.198 119.838L212.236 119.843L212.274 119.845L212.343 118.607ZM213.979 119.262L213.142 120.175V120.175L213.979 119.262ZM214.852 120.789L213.645 121.073L213.647 121.081L213.65 121.089L214.852 120.789ZM214.743 122.643L215.912 123.056L215.916 123.045L215.919 123.035L214.743 122.643ZM213.434 124.279L212.708 123.274L212.706 123.276L213.434 124.279ZM208.198 126.734L208.524 127.93L208.531 127.928L208.539 127.926L208.198 126.734ZM202.089 126.312C198.255 126.312 195.036 125.546 192.384 124.069L191.178 126.235C194.271 127.958 197.924 128.791 202.089 128.791V126.312ZM192.4 124.078C189.772 122.562 187.756 120.447 186.336 117.709L184.136 118.85C185.77 122.003 188.117 124.47 191.162 126.226L192.4 124.078ZM186.339 117.715C184.918 114.94 184.185 111.633 184.185 107.753H181.706C181.706 111.946 182.499 115.656 184.133 118.845L186.339 117.715ZM184.185 107.753C184.185 104.854 184.604 102.292 185.419 100.05L183.089 99.2029C182.159 101.761 181.706 104.616 181.706 107.753H184.185ZM185.421 100.045C186.241 97.7567 187.408 95.8379 188.913 94.2661L187.122 92.5515C185.355 94.3976 184.013 96.624 183.087 99.2085L185.421 100.045ZM188.922 94.2566C190.423 92.6556 192.263 91.4302 194.462 90.5842L193.572 88.2703C191.045 89.2424 188.885 90.6714 187.113 92.561L188.922 94.2566ZM194.472 90.5806C196.706 89.7004 199.239 89.2488 202.089 89.2488V86.7696C198.976 86.7696 196.128 87.2634 193.563 88.2739L194.472 90.5806ZM202.089 89.2488C203.983 89.2488 205.84 89.4896 207.663 89.9712L208.296 87.5743C206.266 87.0378 204.196 86.7696 202.089 86.7696V89.2488ZM207.663 89.9712C209.482 90.4516 211.048 91.1299 212.377 91.9937L213.728 89.9151C212.148 88.8881 210.332 88.1121 208.296 87.5743L207.663 89.9712ZM212.4 92.0084C212.981 92.3684 213.277 92.7502 213.416 93.1283L215.743 92.2712C215.373 91.2676 214.65 90.4859 213.705 89.9005L212.4 92.0084ZM213.424 93.149C213.594 93.5863 213.623 93.9911 213.533 94.3944L215.953 94.9322C216.154 94.0264 216.074 93.1222 215.735 92.2505L213.424 93.149ZM213.536 94.3793C213.448 94.7534 213.268 95.0632 212.975 95.3341L214.657 97.1558C215.309 96.554 215.747 95.8094 215.95 94.9472L213.536 94.3793ZM212.939 95.3685C212.729 95.5788 212.441 95.7288 211.995 95.7758L212.255 98.2413C213.19 98.1428 214.03 97.7838 214.692 97.1215L212.939 95.3685ZM212.056 95.7709C211.753 95.7877 211.284 95.6832 210.609 95.2537L209.278 97.3453C210.203 97.9339 211.188 98.3021 212.194 98.2462L212.056 95.7709ZM210.615 95.2579C209.373 94.4566 208.03 93.8752 206.59 93.5152L205.988 95.9204C207.166 96.2149 208.259 96.688 209.271 97.3411L210.615 95.2579ZM206.59 93.5152C205.183 93.1635 203.755 92.9873 202.308 92.9873V95.4665C203.551 95.4665 204.777 95.6176 205.988 95.9204L206.59 93.5152ZM202.308 92.9873C199.558 92.9873 197.146 93.5495 195.131 94.7419L196.394 96.8754C197.943 95.9589 199.894 95.4665 202.308 95.4665V92.9873ZM195.131 94.7419C193.117 95.9338 191.605 97.6611 190.598 99.8772L192.855 100.903C193.666 99.1195 194.844 97.7924 196.394 96.8754L195.131 94.7419ZM190.598 99.8772C189.596 102.081 189.123 104.722 189.123 107.753H191.603C191.603 104.967 192.039 102.699 192.855 100.903L190.598 99.8772ZM189.123 107.753C189.123 110.752 189.597 113.388 190.595 115.622L192.858 114.611C192.038 112.773 191.603 110.5 191.603 107.753H189.123ZM190.595 115.622C191.6 117.873 193.111 119.624 195.131 120.819L196.394 118.686C194.85 117.772 193.671 116.432 192.858 114.611L190.595 115.622ZM195.131 120.819C197.146 122.012 199.558 122.574 202.308 122.574V120.095C199.894 120.095 197.943 119.602 196.394 118.686L195.131 120.819ZM202.308 122.574C203.788 122.574 205.25 122.398 206.691 122.048L206.105 119.639C204.856 119.943 203.59 120.095 202.308 120.095V122.574ZM206.722 122.04C208.18 121.646 209.56 121.054 210.859 120.267L209.574 118.147C208.472 118.814 207.307 119.314 206.075 119.647L206.722 122.04ZM210.847 120.274C211.523 119.875 211.954 119.809 212.198 119.838L212.488 117.376C211.497 117.259 210.509 117.594 209.585 118.14L210.847 120.274ZM212.274 119.845C212.676 119.867 212.94 119.99 213.142 120.175L214.817 118.348C214.147 117.733 213.32 117.42 212.412 117.369L212.274 119.845ZM213.142 120.175C213.381 120.395 213.553 120.678 213.645 121.073L216.059 120.505C215.861 119.663 215.45 118.928 214.817 118.348L213.142 120.175ZM213.65 121.089C213.73 121.41 213.722 121.786 213.567 122.251L215.919 123.035C216.2 122.191 216.266 121.331 216.055 120.488L213.65 121.089ZM213.574 122.231C213.458 122.561 213.206 122.915 212.708 123.274L214.16 125.284C214.971 124.698 215.592 123.962 215.912 123.056L213.574 122.231ZM212.706 123.276C211.388 124.232 209.779 124.993 207.858 125.542L208.539 127.926C210.69 127.311 212.571 126.436 214.162 125.283L212.706 123.276ZM207.872 125.538C205.978 126.054 204.052 126.312 202.089 126.312V128.791C204.272 128.791 206.418 128.504 208.524 127.93L207.872 125.538ZM222.198 126.079L221.297 126.93L221.309 126.943L221.322 126.956L222.198 126.079ZM222.144 89.3182L221.267 88.4417V88.4417L222.144 89.3182ZM227.325 89.3182L226.422 90.1677L226.448 90.1951L226.476 90.2208L227.325 89.3182ZM228.252 121.061H227.013V122.301H228.252V121.061ZM246.306 121.825L245.429 122.702L245.444 122.717L245.46 122.731L246.306 121.825ZM246.306 126.243L247.182 127.119L246.306 126.243ZM224.816 125.767C223.918 125.767 223.398 125.526 223.075 125.203L221.322 126.956C222.234 127.868 223.46 128.246 224.816 128.246V125.767ZM223.099 125.228C222.75 124.858 222.511 124.301 222.511 123.407H220.031C220.031 124.767 220.41 125.992 221.297 126.93L223.099 125.228ZM222.511 123.407V91.9362H220.031V123.407H222.511ZM222.511 91.9362C222.511 90.9637 222.753 90.462 223.02 90.1947L221.267 88.4417C220.371 89.3379 220.031 90.5815 220.031 91.9362H222.511ZM223.02 90.1947C223.344 89.871 223.864 89.6306 224.762 89.6306V87.1514C223.405 87.1514 222.18 87.5291 221.267 88.4417L223.02 90.1947ZM224.762 89.6306C225.664 89.6306 226.145 89.8725 226.422 90.1677L228.228 88.4686C227.342 87.5275 226.114 87.1514 224.762 87.1514V89.6306ZM226.476 90.2208C226.763 90.4917 227.013 90.9836 227.013 91.9362H229.492C229.492 90.5617 229.123 89.3082 228.175 88.4155L226.476 90.2208ZM227.013 91.9362V121.061H229.492V91.9362H227.013ZM228.252 122.301H244.069V119.822H228.252V122.301ZM244.069 122.301C244.845 122.301 245.227 122.499 245.429 122.702L247.182 120.948C246.366 120.133 245.257 119.822 244.069 119.822V122.301ZM245.46 122.731C245.691 122.947 245.884 123.307 245.884 124.007H248.363C248.363 122.815 248.011 121.721 247.151 120.919L245.46 122.731ZM245.884 124.007C245.884 124.702 245.692 125.104 245.429 125.366L247.182 127.119C248.01 126.291 248.363 125.202 248.363 124.007H245.884ZM245.429 125.366C245.227 125.569 244.845 125.767 244.069 125.767V128.246C245.257 128.246 246.366 127.935 247.182 127.119L245.429 125.366ZM244.069 125.767H224.816V128.246H244.069V125.767ZM252.77 126.516L251.844 127.339L251.868 127.366L251.894 127.392L252.77 126.516ZM252.77 89.0455L251.894 88.1689L251.88 88.1822L251.867 88.1959L252.77 89.0455ZM257.952 89.0455L257.049 89.895L257.062 89.9087L257.075 89.922L257.952 89.0455ZM258.006 126.516L258.909 127.365L258.921 127.352L258.933 127.339L258.006 126.516ZM255.388 126.203C254.49 126.203 253.97 125.963 253.647 125.639L251.894 127.392C252.806 128.305 254.032 128.682 255.388 128.682V126.203ZM253.697 125.692C253.369 125.324 253.137 124.756 253.137 123.843H250.658C250.658 125.184 251.008 126.399 251.844 127.339L253.697 125.692ZM253.137 123.843V91.718H250.658V123.843H253.137ZM253.137 91.718C253.137 90.7516 253.377 90.2094 253.673 89.895L251.867 88.1959C251 89.1179 250.658 90.3573 250.658 91.718H253.137ZM253.647 89.922C253.97 89.5983 254.49 89.3578 255.388 89.3578V86.8787C254.032 86.8787 252.806 87.2564 251.894 88.1689L253.647 89.922ZM255.388 89.3578C256.291 89.3578 256.771 89.5998 257.049 89.895L258.854 88.1959C257.968 87.2548 256.74 86.8787 255.388 86.8787V89.3578ZM257.075 89.922C257.392 90.2386 257.639 90.7707 257.639 91.718H260.118C260.118 90.3382 259.748 89.0886 258.828 88.1689L257.075 89.922ZM257.639 91.718V123.843H260.118V91.718H257.639ZM257.639 123.843C257.639 124.756 257.407 125.324 257.08 125.692L258.933 127.339C259.769 126.399 260.118 125.184 260.118 123.843H257.639ZM257.103 125.666C256.833 125.954 256.341 126.203 255.388 126.203V128.682C256.763 128.682 258.016 128.314 258.909 127.365L257.103 125.666ZM268.109 126.57L267.204 127.418L267.218 127.433L267.232 127.447L268.109 126.57ZM268.109 89.0455L267.206 88.1959L267.204 88.1977L268.109 89.0455ZM272.199 88.6091L271.414 89.5685L271.461 89.6069L271.512 89.6405L272.199 88.6091ZM273.726 90.1363L274.708 89.3797L274.701 89.3707L274.694 89.3619L273.726 90.1363ZM294.616 117.244V118.483H297.136L295.598 116.487L294.616 117.244ZM293.198 117.244H291.958V118.483H293.198V117.244ZM294.016 88.9909L293.139 88.1144L293.125 88.1285L293.112 88.1431L294.016 88.9909ZM298.87 88.9909L297.966 89.8387V89.8387L298.87 88.9909ZM298.925 126.57L297.992 125.754L298.925 126.57ZM294.834 126.952L294.128 127.971L294.146 127.983L294.164 127.995L294.834 126.952ZM293.252 125.37L292.27 126.126L292.277 126.135L292.284 126.145L293.252 125.37ZM272.417 98.263V97.0234H269.901L271.435 99.0184L272.417 98.263ZM273.781 98.263H275.021V97.0234H273.781V98.263ZM272.963 126.57L272.059 125.722L272.963 126.57ZM270.563 126.203C269.74 126.203 269.274 125.982 268.985 125.694L267.232 127.447C268.107 128.322 269.277 128.682 270.563 128.682V126.203ZM269.013 125.722C268.752 125.444 268.53 124.955 268.53 124.061H266.051C266.051 125.35 266.375 126.533 267.204 127.418L269.013 125.722ZM268.53 124.061V91.6089H266.051V124.061H268.53ZM268.53 91.6089C268.53 90.6662 268.758 90.1652 269.013 89.8933L267.204 88.1977C266.368 89.0893 266.051 90.2972 266.051 91.6089H268.53ZM269.011 89.895C269.341 89.5448 269.751 89.3578 270.345 89.3578V86.8787C269.121 86.8787 268.04 87.3098 267.206 88.1959L269.011 89.895ZM270.345 89.3578C271.06 89.3578 271.336 89.5048 271.414 89.5685L272.984 87.6497C272.262 87.059 271.303 86.8787 270.345 86.8787V89.3578ZM271.512 89.6405C271.79 89.8261 272.205 90.2185 272.758 90.9107L274.694 89.3619C274.085 88.5997 273.481 87.974 272.887 87.5777L271.512 89.6405ZM272.745 90.8929L293.634 118L295.598 116.487L274.708 89.3797L272.745 90.8929ZM294.616 116.004H293.198V118.483H294.616V116.004ZM294.437 117.244V91.4453H291.958V117.244H294.437ZM294.437 91.4453C294.437 90.6016 294.652 90.1246 294.92 89.8387L293.112 88.1431C292.289 89.0208 291.958 90.18 291.958 91.4453H294.437ZM294.892 89.8674C295.181 89.5787 295.648 89.3578 296.47 89.3578V86.8787C295.184 86.8787 294.014 87.2396 293.139 88.1144L294.892 89.8674ZM296.47 89.3578C297.298 89.3578 297.724 89.5803 297.966 89.8387L299.774 88.1431C298.926 87.238 297.752 86.8787 296.47 86.8787V89.3578ZM297.966 89.8387C298.234 90.1246 298.449 90.6016 298.449 91.4453H300.928C300.928 90.18 300.597 89.0208 299.774 88.1431L297.966 89.8387ZM298.449 91.4453V124.17H300.928V91.4453H298.449ZM298.449 124.17C298.449 124.985 298.248 125.462 297.992 125.754L299.858 127.386C300.62 126.515 300.928 125.392 300.928 124.17H298.449ZM297.992 125.754C297.75 126.03 297.419 126.203 296.852 126.203V128.682C298.031 128.682 299.081 128.274 299.858 127.386L297.992 125.754ZM296.852 126.203C296.166 126.203 295.751 126.068 295.504 125.909L294.164 127.995C294.935 128.491 295.866 128.682 296.852 128.682V126.203ZM295.54 125.933C295.208 125.703 294.767 125.28 294.22 124.596L292.284 126.145C292.901 126.915 293.515 127.546 294.128 127.971L295.54 125.933ZM294.235 124.615L273.4 97.5076L271.435 99.0184L292.27 126.126L294.235 124.615ZM272.417 99.5026H273.781V97.0234H272.417V99.5026ZM272.541 98.263V124.061H275.021V98.263H272.541ZM272.541 124.061C272.541 124.955 272.32 125.444 272.059 125.722L273.867 127.418C274.697 126.533 275.021 125.35 275.021 124.061H272.541ZM272.059 125.722C271.816 125.981 271.39 126.203 270.563 126.203V128.682C271.845 128.682 273.019 128.323 273.867 127.418L272.059 125.722ZM308.963 126.516L308.036 127.339L308.061 127.366L308.086 127.392L308.963 126.516ZM308.963 89.0455L308.086 88.1689L308.073 88.1822L308.06 88.1959L308.963 89.0455ZM314.144 89.0455L313.242 89.895L313.255 89.9087L313.268 89.922L314.144 89.0455ZM314.199 126.516L315.102 127.365L315.114 127.352L315.125 127.339L314.199 126.516ZM311.581 126.203C310.683 126.203 310.163 125.963 309.839 125.639L308.086 127.392C308.999 128.305 310.224 128.682 311.581 128.682V126.203ZM309.889 125.692C309.562 125.324 309.33 124.756 309.33 123.843H306.851C306.851 125.184 307.2 126.399 308.036 127.339L309.889 125.692ZM309.33 123.843V91.718H306.851V123.843H309.33ZM309.33 91.718C309.33 90.7516 309.57 90.2094 309.866 89.895L308.06 88.1959C307.193 89.1179 306.851 90.3573 306.851 91.718H309.33ZM309.839 89.922C310.163 89.5983 310.683 89.3578 311.581 89.3578V86.8787C310.224 86.8787 308.999 87.2564 308.086 88.1689L309.839 89.922ZM311.581 89.3578C312.483 89.3578 312.964 89.5998 313.242 89.895L315.047 88.1959C314.161 87.2548 312.933 86.8787 311.581 86.8787V89.3578ZM313.268 89.922C313.585 90.2386 313.832 90.7707 313.832 91.718H316.311C316.311 90.3382 315.941 89.0886 315.021 88.1689L313.268 89.922ZM313.832 91.718V123.843H316.311V91.718H313.832ZM313.832 123.843C313.832 124.756 313.6 125.324 313.272 125.692L315.125 127.339C315.961 126.399 316.311 125.184 316.311 123.843H313.832ZM313.296 125.666C313.025 125.954 312.534 126.203 311.581 126.203V128.682C312.955 128.682 314.209 128.314 315.102 127.365L313.296 125.666ZM331.065 125.152L330.445 126.226L330.453 126.23L330.462 126.235L331.065 125.152ZM324.52 118.28L323.416 118.845L323.419 118.85L324.52 118.28ZM323.538 99.6266L324.703 100.05L324.705 100.045L323.538 99.6266ZM327.301 93.4088L328.197 94.2661L328.206 94.2566L327.301 93.4088ZM333.301 89.4273L333.746 90.5843L333.755 90.5806L333.301 89.4273ZM347.264 88.7728L346.947 89.9712L347.264 88.7728ZM352.336 90.9544L351.66 91.9937L351.672 92.0012L351.683 92.0084L352.336 90.9544ZM353.863 92.6998L352.7 93.1283L352.704 93.1387L352.708 93.149L353.863 92.6998ZM354.027 94.6633L355.233 94.9472L355.235 94.9397L355.237 94.9322L354.027 94.6633ZM353.1 96.245L352.259 95.3341L352.24 95.3509L352.223 95.3685L353.1 96.245ZM351.409 97.0086L351.477 98.2462L351.508 98.2445L351.538 98.2413L351.409 97.0086ZM349.227 96.2995L348.555 97.3411L348.562 97.3453L349.227 96.2995ZM345.573 94.7178L345.873 93.5152L345.573 94.7178ZM335.046 95.8086L334.415 94.7419L335.046 95.8086ZM331.01 100.39L329.882 99.8772L331.01 100.39ZM331.01 115.116L329.878 115.622L331.01 115.116ZM335.046 119.752L334.415 120.819L335.046 119.752ZM345.682 120.843L345.975 122.048L345.99 122.044L346.005 122.04L345.682 120.843ZM349.5 119.207L348.869 118.14L348.857 118.147L349.5 119.207ZM351.627 118.607L351.482 119.838L351.52 119.843L351.558 119.845L351.627 118.607ZM353.263 119.262L352.426 120.175V120.175L353.263 119.262ZM354.136 120.789L352.929 121.073L352.931 121.081L352.933 121.089L354.136 120.789ZM354.027 122.643L355.196 123.056L355.199 123.045L355.203 123.035L354.027 122.643ZM352.718 124.279L351.992 123.274L351.99 123.276L352.718 124.279ZM347.482 126.734L347.808 127.93L347.815 127.928L347.822 127.926L347.482 126.734ZM341.373 126.312C337.539 126.312 334.32 125.546 331.668 124.069L330.462 126.235C333.554 127.958 337.208 128.791 341.373 128.791V126.312ZM331.684 124.078C329.056 122.562 327.04 120.447 325.62 117.709L323.419 118.85C325.054 122.003 327.401 124.47 330.445 126.226L331.684 124.078ZM325.623 117.715C324.202 114.94 323.468 111.633 323.468 107.753H320.989C320.989 111.946 321.783 115.656 323.416 118.845L325.623 117.715ZM323.468 107.753C323.468 104.854 323.888 102.292 324.703 100.05L322.373 99.2029C321.443 101.761 320.989 104.616 320.989 107.753H323.468ZM324.705 100.045C325.524 97.7567 326.692 95.8379 328.197 94.2661L326.406 92.5515C324.638 94.3976 323.297 96.624 322.371 99.2085L324.705 100.045ZM328.206 94.2566C329.707 92.6556 331.546 91.4302 333.746 90.5842L332.856 88.2703C330.328 89.2424 328.169 90.6714 326.397 92.561L328.206 94.2566ZM333.755 90.5806C335.99 89.7004 338.523 89.2488 341.373 89.2488V86.7696C338.26 86.7696 335.412 87.2634 332.847 88.2739L333.755 90.5806ZM341.373 89.2488C343.266 89.2488 345.123 89.4896 346.947 89.9712L347.58 87.5743C345.549 87.0378 343.479 86.7696 341.373 86.7696V89.2488ZM346.947 89.9712C348.765 90.4516 350.331 91.1299 351.66 91.9937L353.011 89.9151C351.432 88.8881 349.616 88.1121 347.58 87.5743L346.947 89.9712ZM351.683 92.0084C352.265 92.3684 352.561 92.7502 352.7 93.1283L355.026 92.2712C354.656 91.2676 353.934 90.4859 352.988 89.9005L351.683 92.0084ZM352.708 93.149C352.878 93.5863 352.906 93.9911 352.817 94.3944L355.237 94.9322C355.438 94.0264 355.357 93.1222 355.018 92.2505L352.708 93.149ZM352.82 94.3793C352.732 94.7534 352.552 95.0632 352.259 95.3341L353.94 97.1558C354.592 96.554 355.03 95.8094 355.233 94.9472L352.82 94.3793ZM352.223 95.3685C352.013 95.5788 351.725 95.7288 351.279 95.7758L351.538 98.2413C352.474 98.1428 353.314 97.7838 353.976 97.1215L352.223 95.3685ZM351.34 95.7709C351.037 95.7877 350.567 95.6832 349.893 95.2537L348.562 97.3453C349.487 97.9339 350.472 98.3021 351.477 98.2462L351.34 95.7709ZM349.899 95.2579C348.657 94.4566 347.313 93.8752 345.873 93.5152L345.272 95.9204C346.45 96.2149 347.543 96.688 348.555 97.3411L349.899 95.2579ZM345.873 93.5152C344.466 93.1635 343.038 92.9873 341.591 92.9873V95.4665C342.835 95.4665 344.061 95.6176 345.272 95.9204L345.873 93.5152ZM341.591 92.9873C338.842 92.9873 336.43 93.5495 334.415 94.7419L335.678 96.8754C337.226 95.9589 339.177 95.4665 341.591 95.4665V92.9873ZM334.415 94.7419C332.401 95.9338 330.889 97.6611 329.882 99.8772L332.139 100.903C332.949 99.1195 334.128 97.7924 335.678 96.8754L334.415 94.7419ZM329.882 99.8772C328.88 102.081 328.407 104.722 328.407 107.753H330.886C330.886 104.967 331.322 102.699 332.139 100.903L329.882 99.8772ZM328.407 107.753C328.407 110.752 328.881 113.388 329.878 115.622L332.142 114.611C331.321 112.773 330.886 110.5 330.886 107.753H328.407ZM329.878 115.622C330.883 117.873 332.395 119.624 334.415 120.819L335.678 118.686C334.134 117.772 332.955 116.432 332.142 114.611L329.878 115.622ZM334.415 120.819C336.43 122.012 338.842 122.574 341.591 122.574V120.095C339.177 120.095 337.226 119.602 335.678 118.686L334.415 120.819ZM341.591 122.574C343.072 122.574 344.534 122.398 345.975 122.048L345.389 119.639C344.139 119.943 342.874 120.095 341.591 120.095V122.574ZM346.005 122.04C347.464 121.646 348.844 121.054 350.142 120.267L348.857 118.147C347.756 118.814 346.591 119.314 345.358 119.647L346.005 122.04ZM350.13 120.274C350.807 119.875 351.237 119.809 351.482 119.838L351.772 117.376C350.78 117.259 349.793 117.594 348.869 118.14L350.13 120.274ZM351.558 119.845C351.959 119.867 352.223 119.99 352.426 120.175L354.101 118.348C353.43 117.733 352.603 117.42 351.696 117.369L351.558 119.845ZM352.426 120.175C352.665 120.395 352.836 120.678 352.929 121.073L355.342 120.505C355.144 119.663 354.734 118.928 354.101 118.348L352.426 120.175ZM352.933 121.089C353.013 121.41 353.006 121.786 352.851 122.251L355.203 123.035C355.484 122.191 355.549 121.331 355.338 120.488L352.933 121.089ZM352.858 122.231C352.741 122.561 352.49 122.915 351.992 123.274L353.443 125.284C354.255 124.698 354.876 123.962 355.196 123.056L352.858 122.231ZM351.99 123.276C350.672 124.232 349.063 124.993 347.141 125.542L347.822 127.926C349.973 127.311 351.855 126.436 353.445 125.283L351.99 123.276ZM347.156 125.538C345.262 126.054 343.335 126.312 341.373 126.312V128.791C343.556 128.791 345.702 128.504 347.808 127.93L347.156 125.538Z" fill="white"/>
<path d="M5.12692 43.0663L4.22572 43.9174L4.25004 43.9431L4.27579 43.9675L5.12692 43.0663ZM5.12692 6.52334L4.2504 5.64682L4.2504 5.64682L5.12692 6.52334ZM29.4525 6.25063L28.576 7.12715L28.5922 7.14338L28.609 7.15899L29.4525 6.25063ZM29.4525 10.3958L30.329 11.2723L29.4525 10.3958ZM10.9083 11.1048V9.86526H9.66875V11.1048H10.9083ZM10.9083 21.6859H9.66875V22.9255H10.9083V21.6859ZM28.3071 22.395L29.1836 21.5185L29.1836 21.5184L28.3071 22.395ZM28.3071 26.5401L29.1836 27.4167V27.4167L28.3071 26.5401ZM10.9083 27.2492V26.0096H9.66875V27.2492H10.9083ZM10.9083 38.4302H9.66875V39.6698H10.9083V38.4302ZM29.4525 39.1393L28.576 40.0158L28.5922 40.032L28.609 40.0476L29.4525 39.1393ZM29.4525 43.2844L28.609 42.3761L28.5922 42.3917L28.576 42.4079L29.4525 43.2844ZM7.90854 42.7539C6.91722 42.7539 6.33443 42.5017 5.97804 42.1651L4.27579 43.9675C5.22841 44.8671 6.50003 45.2331 7.90854 45.2331V42.7539ZM6.02811 42.2151C5.69153 41.8588 5.43929 41.276 5.43929 40.2846H2.96013C2.96013 41.6931 3.32603 42.9648 4.22572 43.9174L6.02811 42.2151ZM5.43929 40.2846V9.25043H2.96013V40.2846H5.43929ZM5.43929 9.25043C5.43929 8.25403 5.69344 7.70986 6.00344 7.39986L4.2504 5.64682C3.32412 6.57311 2.96013 7.84699 2.96013 9.25043H5.43929ZM6.00344 7.39986C6.3623 7.041 6.93573 6.78117 7.90854 6.78117V4.30201C6.48152 4.30201 5.20054 4.69668 4.2504 5.64682L6.00344 7.39986ZM7.90854 6.78117H27.3799V4.30201H7.90854V6.78117ZM27.3799 6.78117C28.0815 6.78117 28.4094 6.96059 28.576 7.12715L30.329 5.37412C29.5502 4.59529 28.4964 4.30201 27.3799 4.30201V6.78117ZM28.609 7.15899C28.8039 7.3399 28.9765 7.64646 28.9765 8.26867H31.4557C31.4557 7.14556 31.1193 6.10675 30.296 5.34228L28.609 7.15899ZM28.9765 8.26867C28.9765 8.93986 28.7953 9.29993 28.576 9.51928L30.329 11.2723C31.1278 10.4736 31.4557 9.41555 31.4557 8.26867H28.9765ZM28.576 9.51928C28.4094 9.68585 28.0815 9.86526 27.3799 9.86526V12.3444C28.4964 12.3444 29.5502 12.0511 30.329 11.2723L28.576 9.51928ZM27.3799 9.86526H10.9083V12.3444H27.3799V9.86526ZM9.66875 11.1048V21.6859H12.1479V11.1048H9.66875ZM10.9083 22.9255H26.18V20.4463H10.9083V22.9255ZM26.18 22.9255C26.9343 22.9255 27.2724 23.1132 27.4306 23.2715L29.1836 21.5184C28.3965 20.7313 27.3165 20.4463 26.18 20.4463V22.9255ZM27.4306 23.2715C27.5972 23.438 27.7766 23.7659 27.7766 24.4676H30.2558C30.2558 23.3511 29.9625 22.2973 29.1836 21.5185L27.4306 23.2715ZM27.7766 24.4676C27.7766 25.1692 27.5972 25.4971 27.4306 25.6636L29.1836 27.4167C29.9625 26.6378 30.2558 25.584 30.2558 24.4676H27.7766ZM27.4306 25.6636C27.2724 25.8219 26.9343 26.0096 26.18 26.0096V28.4888C27.3165 28.4888 28.3965 28.2038 29.1836 27.4167L27.4306 25.6636ZM26.18 26.0096H10.9083V28.4888H26.18V26.0096ZM9.66875 27.2492V38.4302H12.1479V27.2492H9.66875ZM10.9083 39.6698H27.3799V37.1906H10.9083V39.6698ZM27.3799 39.6698C28.0815 39.6698 28.4094 39.8492 28.576 40.0158L30.329 38.2627C29.5502 37.4839 28.4964 37.1906 27.3799 37.1906V39.6698ZM28.609 40.0476C28.7937 40.2191 28.9765 40.5356 28.9765 41.2118H31.4557C31.4557 40.07 31.1294 39.0048 30.296 38.2309L28.609 40.0476ZM28.9765 41.2118C28.9765 41.8881 28.7937 42.2045 28.609 42.3761L30.296 44.1928C31.1294 43.4189 31.4557 42.3536 31.4557 41.2118H28.9765ZM28.576 42.4079C28.4094 42.5745 28.0815 42.7539 27.3799 42.7539V45.2331C28.4964 45.2331 29.5502 44.9398 30.329 44.1609L28.576 42.4079ZM27.3799 42.7539H7.90854V45.2331H27.3799V42.7539ZM37.6163 43.5026L36.6898 44.3261L36.714 44.3534L36.7398 44.3791L37.6163 43.5026ZM37.6163 6.03247L36.7398 5.15595V5.15595L37.6163 6.03247ZM42.7977 6.03247L41.8951 6.88203L41.9208 6.90939L41.9482 6.93513L42.7977 6.03247ZM43.7249 22.5586H42.4854V23.7982H43.7249V22.5586ZM43.834 22.5586V23.7982H44.3487L44.7121 23.4336L43.834 22.5586ZM59.4875 6.85059L58.611 5.97407L58.6095 5.9756L59.4875 6.85059ZM61.2328 5.54159L60.6785 4.43287V4.43287L61.2328 5.54159ZM65.4325 5.92338L64.4646 6.69775L64.4798 6.71679L64.4958 6.73523L65.4325 5.92338ZM65.978 7.83234L64.7521 7.64846L64.7476 7.67863L64.7445 7.709L65.978 7.83234ZM64.9417 9.85038L65.8137 10.7314L65.8182 10.7269L64.9417 9.85038ZM49.0155 25.6129L47.7761 25.5916L47.7236 28.6356L49.8875 26.494L49.0155 25.6129ZM49.07 22.4495L49.9536 21.5801L47.8816 19.4741L47.8306 22.4281L49.07 22.4495ZM65.7052 39.3574L64.8216 40.2268L64.8358 40.2412L64.8504 40.2551L65.7052 39.3574ZM66.9052 41.6482L68.1435 41.5919V41.5919L66.9052 41.6482ZM66.1416 43.6662L67.0181 44.5427L66.1416 43.6662ZM61.7237 43.8844L61.0032 44.8931L61.0195 44.9047L61.0361 44.9158L61.7237 43.8844ZM59.9238 42.3027L60.8003 41.4262L59.9238 42.3027ZM43.834 26.2129L44.7106 25.3364L44.3475 24.9733H43.834V26.2129ZM43.7249 26.2129V24.9733H42.4854V26.2129H43.7249ZM42.8523 43.5026L43.7549 44.3522L43.767 44.3393L43.7788 44.3261L42.8523 43.5026ZM40.2343 43.1902C39.3364 43.1902 38.8165 42.9498 38.4928 42.6261L36.7398 44.3791C37.6523 45.2917 38.8778 45.6694 40.2343 45.6694V43.1902ZM38.5428 42.6791C38.2152 42.3105 37.9832 41.7433 37.9832 40.8301H35.504C35.504 42.1712 35.8538 43.3857 36.6898 44.3261L38.5428 42.6791ZM37.9832 40.8301V8.65047H35.504V40.8301H37.9832ZM37.9832 8.65047C37.9832 7.67799 38.2255 7.1763 38.4928 6.90898L36.7398 5.15595C35.8435 6.05219 35.504 7.29584 35.504 8.65047H37.9832ZM38.4928 6.90898C38.8165 6.58528 39.3364 6.34484 40.2343 6.34484V3.86567C38.8778 3.86567 37.6523 4.24337 36.7398 5.15595L38.4928 6.90898ZM40.2343 6.34484C41.1368 6.34484 41.6172 6.58683 41.8951 6.88203L43.7004 5.1829C42.8147 4.24183 41.5862 3.86567 40.2343 3.86567V6.34484ZM41.9482 6.93513C42.2359 7.20597 42.4854 7.69785 42.4854 8.65047H44.9645C44.9645 7.27598 44.5958 6.02252 43.6473 5.1298L41.9482 6.93513ZM42.4854 8.65047V22.5586H44.9645V8.65047H42.4854ZM43.7249 23.7982H43.834V21.319H43.7249V23.7982ZM44.7121 23.4336L60.3655 7.72558L58.6095 5.9756L42.956 21.6836L44.7121 23.4336ZM60.364 7.72711C60.8754 7.21576 61.3513 6.86823 61.7872 6.65031L60.6785 4.43287C59.9508 4.79673 59.2632 5.32187 58.611 5.97407L60.364 7.72711ZM61.7872 6.65031C62.1774 6.45519 62.6386 6.34484 63.1963 6.34484V3.86567C62.2996 3.86567 61.4518 4.04621 60.6785 4.43287L61.7872 6.65031ZM63.1963 6.34484C64.0704 6.34484 64.3635 6.57139 64.4646 6.69775L66.4005 5.14902C65.6289 4.18454 64.4312 3.86567 63.1963 3.86567V6.34484ZM64.4958 6.73523C64.7262 7.00103 64.8086 7.27167 64.7521 7.64846L67.2038 8.01622C67.3655 6.93857 67.0843 5.93657 66.3693 5.11154L64.4958 6.73523ZM64.7445 7.709C64.7056 8.09834 64.5222 8.51676 64.0651 8.97386L65.8182 10.7269C66.5974 9.94773 67.1049 9.02079 67.2114 7.95569L64.7445 7.709ZM64.0697 8.96935L48.1435 24.7319L49.8875 26.494L65.8136 10.7314L64.0697 8.96935ZM50.2549 25.6343L50.3094 22.4709L47.8306 22.4281L47.7761 25.5916L50.2549 25.6343ZM48.1864 23.3189L64.8216 40.2268L66.5889 38.4881L49.9536 21.5801L48.1864 23.3189ZM64.8504 40.2551C65.458 40.8338 65.6491 41.3149 65.6669 41.7045L68.1435 41.5919C68.0884 40.3816 67.4796 39.3355 66.5601 38.4598L64.8504 40.2551ZM65.6669 41.7045C65.6881 42.1715 65.5537 42.501 65.2651 42.7897L67.0181 44.5427C67.8203 43.7406 68.195 42.7248 68.1435 41.5919L65.6669 41.7045ZM65.2651 42.7897C65.0705 42.9843 64.6779 43.1902 63.8508 43.1902V45.6694C65.06 45.6694 66.1946 45.3662 67.0181 44.5427L65.2651 42.7897ZM63.8508 43.1902C63.1434 43.1902 62.6957 43.0426 62.4113 42.853L61.0361 44.9158C61.8425 45.4534 62.8129 45.6694 63.8508 45.6694V43.1902ZM62.4442 42.8757C62.0125 42.5673 61.4665 42.0924 60.8003 41.4262L59.0473 43.1792C59.7628 43.8947 60.4168 44.4742 61.0032 44.8931L62.4442 42.8757ZM60.8003 41.4262L44.7106 25.3364L42.9575 27.0894L59.0473 43.1792L60.8003 41.4262ZM43.834 24.9733H43.7249V27.4525H43.834V24.9733ZM42.4854 26.2129V40.8301H44.9645V26.2129H42.4854ZM42.4854 40.8301C42.4854 41.7433 42.2534 42.3105 41.9258 42.6791L43.7788 44.3261C44.6147 43.3857 44.9645 42.1712 44.9645 40.8301H42.4854ZM41.9496 42.653C41.6788 42.9408 41.1869 43.1902 40.2343 43.1902V45.6694C41.6088 45.6694 42.8622 45.3007 43.7549 44.3522L41.9496 42.653ZM69.8858 43.8298L69.1199 44.8046L69.1361 44.8173L69.1527 44.8294L69.8858 43.8298ZM68.9586 42.2481L67.7341 42.4415L67.7358 42.4519L68.9586 42.2481ZM69.3404 39.9574L68.2105 39.4475L68.207 39.4553L68.2036 39.4631L69.3404 39.9574ZM83.7394 8.05051L84.8692 8.5604L84.8705 8.55757L83.7394 8.05051ZM85.4301 5.8143L86.1177 6.84569L86.124 6.84155L86.1301 6.83734L85.4301 5.8143ZM90.0117 5.8143L89.2859 6.8192L89.3171 6.84177L89.3497 6.86235L90.0117 5.8143ZM91.757 8.05051L90.6258 8.55757L90.6278 8.562L91.757 8.05051ZM106.211 39.9574L105.081 40.4689L105.087 40.4806L105.092 40.4922L106.211 39.9574ZM106.647 42.2481L105.422 42.0548L106.647 42.2481ZM105.72 43.8844L106.44 44.8931L106.463 44.8766L106.485 44.8591L105.72 43.8844ZM101.302 43.7208L100.456 44.627L100.487 44.656L100.52 44.6828L101.302 43.7208ZM99.8291 41.43L100.969 40.9417L100.968 40.9399L99.8291 41.43ZM96.2839 33.1942L96.9581 32.154L93.5302 29.9322L95.1454 33.6843L96.2839 33.1942ZM99.2292 35.1032V36.3428H103.421L99.9034 34.063L99.2292 35.1032ZM76.2126 35.1032L75.5384 34.063L72.021 36.3428H76.2126V35.1032ZM79.1579 33.1942L80.2992 33.6779L81.8773 29.9544L78.4837 32.154L79.1579 33.1942ZM75.6672 41.43L76.7983 41.9371L76.8035 41.9255L76.8085 41.9137L75.6672 41.43ZM74.1946 43.7208L73.3511 42.8124L74.1946 43.7208ZM87.6664 13.1229V11.8833H86.8428L86.5237 12.6425L87.6664 13.1229ZM80.0305 31.2853L79.0685 32.0669L80.372 33.6713L81.1732 31.7657L80.0305 31.2853ZM78.6124 29.5399V28.3003H76.0081L77.6504 30.3216L78.6124 29.5399ZM96.8294 29.5399L97.8062 30.3031L99.3708 28.3003H96.8294V29.5399ZM95.4658 31.2853L94.3243 31.7686L95.1457 33.7085L96.4426 32.0484L95.4658 31.2853ZM87.7754 13.1229L88.9169 12.6396L88.5967 11.8833H87.7754V13.1229ZM72.0129 43.1902C71.3272 43.1902 70.8972 43.0344 70.6188 42.8302L69.1527 44.8294C69.9652 45.4253 70.9532 45.6694 72.0129 45.6694V43.1902ZM70.6516 42.8551C70.3923 42.6514 70.2409 42.4023 70.1813 42.0443L67.7358 42.4519C67.8944 43.403 68.3612 44.2084 69.1199 44.8046L70.6516 42.8551ZM70.183 42.0548C70.1203 41.6578 70.1795 41.1363 70.4771 40.4516L68.2036 39.4631C67.774 40.4511 67.5787 41.4568 67.7341 42.4415L70.183 42.0548ZM70.4702 40.4673L84.8692 8.56039L82.6095 7.54062L68.2105 39.4475L70.4702 40.4673ZM84.8705 8.55757C85.2898 7.62217 85.7284 7.10528 86.1177 6.84569L84.7425 4.7829C83.8229 5.39598 83.1343 6.3699 82.6082 7.54345L84.8705 8.55757ZM86.1301 6.83734C86.6057 6.51193 87.1413 6.34484 87.7754 6.34484V3.86567C86.6642 3.86567 85.6363 4.17128 84.7302 4.79126L86.1301 6.83734ZM87.7754 6.34484C88.3612 6.34484 88.8506 6.50482 89.2859 6.8192L90.7374 4.80939C89.8637 4.17839 88.8623 3.86567 87.7754 3.86567V6.34484ZM89.3497 6.86235C89.7654 7.12487 90.2133 7.63724 90.6258 8.55757L92.8881 7.54345C92.3553 6.35483 91.6396 5.3764 90.6736 4.76625L89.3497 6.86235ZM90.6278 8.562L105.081 40.4689L107.34 39.4459L92.8861 7.53902L90.6278 8.562ZM105.092 40.4922C105.419 41.1747 105.481 41.6809 105.422 42.0548L107.871 42.4415C108.03 41.4336 107.802 40.4126 107.329 39.4226L105.092 40.4922ZM105.422 42.0548C105.358 42.4638 105.196 42.7193 104.954 42.9097L106.485 44.8591C107.261 44.2495 107.718 43.4142 107.871 42.4415L105.422 42.0548ZM104.999 42.8757C104.761 43.0459 104.365 43.1902 103.702 43.1902V45.6694C104.71 45.6694 105.66 45.4501 106.44 44.8931L104.999 42.8757ZM103.702 43.1902C102.867 43.1902 102.377 42.9968 102.083 42.7587L100.52 44.6828C101.391 45.3901 102.5 45.6694 103.702 45.6694V43.1902ZM102.148 42.8146C101.774 42.4656 101.367 41.8716 100.969 40.9417L98.6898 41.9183C99.1639 43.0247 99.739 43.9578 100.456 44.627L102.148 42.8146ZM100.968 40.9399L97.4225 32.7041L95.1454 33.6843L98.6906 41.9201L100.968 40.9399ZM95.6097 34.2344L98.555 36.1434L99.9034 34.063L96.9581 32.154L95.6097 34.2344ZM99.2292 33.8636H76.2126V36.3428H99.2292V33.8636ZM76.8868 36.1434L79.8321 34.2344L78.4837 32.154L75.5384 34.063L76.8868 36.1434ZM78.0166 32.7105L74.5259 40.9463L76.8085 41.9137L80.2992 33.6779L78.0166 32.7105ZM74.5361 40.923C74.0921 41.9132 73.6836 42.5036 73.3511 42.8124L75.038 44.6291C75.7236 43.9925 76.2968 43.0557 76.7983 41.9371L74.5361 40.923ZM73.3511 42.8124C73.1433 43.0053 72.7599 43.1902 72.0129 43.1902V45.6694C73.1566 45.6694 74.2277 45.3816 75.038 44.6291L73.3511 42.8124ZM86.5237 12.6425L78.8878 30.8048L81.1732 31.7657L88.8091 13.6033L86.5237 12.6425ZM80.9926 30.5036L79.5745 28.7583L77.6504 30.3216L79.0685 32.0669L80.9926 30.5036ZM78.6124 30.7795H96.8294V28.3003H78.6124V30.7795ZM95.8525 28.7768L94.489 30.5221L96.4426 32.0484L97.8062 30.3031L95.8525 28.7768ZM96.6073 30.8019L88.9169 12.6396L86.634 13.6062L94.3243 31.7686L96.6073 30.8019ZM87.7754 11.8833H87.6664V14.3625H87.7754V11.8833Z" fill="white"/>
<path d="M72.4706 84C71.4889 84 70.7303 83.7471 70.1948 83.2414C69.689 82.7059 69.4361 81.9472 69.4361 80.9655V55.5739C69.4361 54.5921 69.689 53.8484 70.1948 53.3426C70.7303 52.8071 71.4889 52.5394 72.4706 52.5394H81.1279C86.3936 52.5394 90.4545 53.893 93.3105 56.6002C96.1963 59.3075 97.6391 63.1899 97.6391 68.2474C97.6391 70.7761 97.2673 73.0222 96.5235 74.9857C95.8095 76.9195 94.7385 78.5557 93.3105 79.8945C91.9123 81.2332 90.1868 82.2596 88.134 82.9736C86.111 83.6579 83.7756 84 81.1279 84H72.4706ZM75.1481 79.2697H80.7709C82.6154 79.2697 84.207 79.0466 85.5458 78.6004C86.9143 78.1244 88.0448 77.4401 88.9372 76.5476C89.8595 75.6254 90.5438 74.48 90.99 73.1115C91.4363 71.7132 91.6594 70.0919 91.6594 68.2474C91.6594 64.5584 90.752 61.8065 88.9372 59.9917C87.1225 58.177 84.4004 57.2696 80.7709 57.2696H75.1481V79.2697ZM106.462 84C105.481 84 104.722 83.7471 104.186 83.2414C103.681 82.7059 103.428 81.9472 103.428 80.9655V55.5739C103.428 54.5921 103.681 53.8484 104.186 53.3426C104.722 52.8071 105.481 52.5394 106.462 52.5394H122.393C123.137 52.5394 123.702 52.7327 124.089 53.1195C124.506 53.5062 124.714 54.0566 124.714 54.7706C124.714 55.5144 124.506 56.0945 124.089 56.511C123.702 56.8977 123.137 57.0911 122.393 57.0911H108.917V65.7484H121.412C122.185 65.7484 122.765 65.9417 123.152 66.3285C123.539 66.7152 123.732 67.2805 123.732 68.0242C123.732 68.768 123.539 69.3332 123.152 69.72C122.765 70.1067 122.185 70.3001 121.412 70.3001H108.917V79.4482H122.393C123.137 79.4482 123.702 79.6416 124.089 80.0284C124.506 80.4151 124.714 80.9804 124.714 81.7241C124.714 82.4679 124.506 83.0331 124.089 83.4199C123.702 83.8066 123.137 84 122.393 84H106.462ZM132.732 84.357C131.869 84.357 131.2 84.119 130.724 83.643C130.278 83.167 130.055 82.4827 130.055 81.5902V55.0384C130.055 54.1161 130.278 53.417 130.724 52.941C131.2 52.4352 131.81 52.1824 132.554 52.1824C133.238 52.1824 133.744 52.3162 134.071 52.584C134.428 52.822 134.844 53.2385 135.32 53.8335L152.412 76.0121H151.252V54.9045C151.252 54.0417 151.475 53.3724 151.921 52.8964C152.397 52.4204 153.066 52.1824 153.929 52.1824C154.792 52.1824 155.446 52.4204 155.893 52.8964C156.339 53.3724 156.562 54.0417 156.562 54.9045V81.6795C156.562 82.5125 156.354 83.167 155.937 83.643C155.521 84.119 154.955 84.357 154.241 84.357C153.557 84.357 153.007 84.2231 152.59 83.9554C152.204 83.6876 151.772 83.2562 151.296 82.6612L134.249 60.4826H135.365V81.5902C135.365 82.4827 135.142 83.167 134.696 83.643C134.249 84.119 133.595 84.357 132.732 84.357ZM173.878 84.357C172.956 84.357 172.242 84.1041 171.736 83.5984C171.26 83.0629 171.022 82.334 171.022 81.4117V57.3142H162.321C161.547 57.3142 160.937 57.106 160.491 56.6895C160.074 56.2432 159.866 55.6482 159.866 54.9045C159.866 54.131 160.074 53.5509 160.491 53.1641C160.937 52.7476 161.547 52.5394 162.321 52.5394H185.436C186.21 52.5394 186.805 52.7476 187.221 53.1641C187.668 53.5509 187.891 54.131 187.891 54.9045C187.891 55.6482 187.668 56.2432 187.221 56.6895C186.805 57.106 186.21 57.3142 185.436 57.3142H176.734V81.4117C176.734 82.334 176.496 83.0629 176.02 83.5984C175.544 84.1041 174.83 84.357 173.878 84.357ZM187.979 84.357C187.265 84.357 186.684 84.1934 186.238 83.8661C185.822 83.5389 185.569 83.1075 185.48 82.572C185.39 82.0067 185.494 81.382 185.792 80.6977L197.573 54.5921C197.96 53.7294 198.421 53.1195 198.956 52.7625C199.522 52.3757 200.161 52.1824 200.875 52.1824C201.559 52.1824 202.169 52.3757 202.705 52.7625C203.27 53.1195 203.746 53.7294 204.133 54.5921L215.958 80.6977C216.286 81.382 216.405 82.0067 216.315 82.572C216.226 83.1372 215.973 83.5835 215.557 83.9107C215.14 84.2083 214.59 84.357 213.906 84.357C213.073 84.357 212.418 84.1636 211.942 83.7769C211.496 83.3604 211.094 82.7356 210.737 81.9026L207.837 75.1642L210.246 76.7261H191.415L193.824 75.1642L190.968 81.9026C190.582 82.7654 190.18 83.3901 189.764 83.7769C189.347 84.1636 188.752 84.357 187.979 84.357ZM200.786 58.7422L194.538 73.6024L193.378 72.1744H208.283L207.167 73.6024L200.875 58.7422H200.786ZM223.774 84C222.852 84 222.138 83.7471 221.632 83.2414C221.126 82.7059 220.874 81.977 220.874 81.0548V55.3061C220.874 54.3541 221.112 53.6401 221.588 53.1641C222.093 52.6584 222.807 52.4055 223.73 52.4055C224.652 52.4055 225.351 52.6584 225.827 53.1641C226.333 53.6401 226.586 54.3541 226.586 55.3061V79.1359H239.527C240.33 79.1359 240.94 79.3441 241.356 79.7606C241.803 80.1771 242.026 80.7721 242.026 81.5456C242.026 82.3191 241.803 82.929 241.356 83.3752C240.94 83.7917 240.33 84 239.527 84H223.774Z" fill="white"/>
<path d="M70.1948 83.2414L69.2936 84.0925L69.3179 84.1183L69.3436 84.1426L70.1948 83.2414ZM70.1948 53.3426L69.3182 52.4661H69.3182L70.1948 53.3426ZM93.3105 56.6002L92.4577 57.4999L92.4624 57.5043L93.3105 56.6002ZM96.5235 74.9858L95.3643 74.5466L95.3607 74.5564L96.5235 74.9858ZM93.3105 79.8945L92.4627 78.9901L92.4532 78.9991L93.3105 79.8945ZM88.134 82.9736L88.5312 84.1479L88.5412 84.1444L88.134 82.9736ZM75.1481 79.2698H73.9085V80.5093H75.1481V79.2698ZM85.5458 78.6004L85.9377 79.7763L85.9454 79.7738L85.953 79.7712L85.5458 78.6004ZM88.9373 76.5476L88.0607 75.6711L88.9373 76.5476ZM90.99 73.1115L92.1685 73.4958L92.1709 73.4884L90.99 73.1115ZM88.9373 59.9917L88.0607 60.8683L88.9373 59.9917ZM75.1481 57.2696V56.03H73.9085V57.2696H75.1481ZM72.4706 82.7604C71.6975 82.7604 71.2833 82.5644 71.0459 82.3402L69.3436 84.1426C70.1772 84.9299 71.2803 85.2396 72.4706 85.2396V82.7604ZM71.0959 82.3902C70.8718 82.1529 70.6757 81.7387 70.6757 80.9655H68.1965C68.1965 82.1558 68.5063 83.2589 69.2936 84.0925L71.0959 82.3902ZM70.6757 80.9655V55.5739H68.1965V80.9655H70.6757ZM70.6757 55.5739C70.6757 54.7956 70.8737 54.4167 71.0713 54.2191L69.3182 52.4661C68.5043 53.28 68.1965 54.3886 68.1965 55.5739H70.6757ZM71.0713 54.2191C71.3111 53.9793 71.716 53.779 72.4706 53.779V51.2998C71.2618 51.2998 70.1494 51.635 69.3182 52.4661L71.0713 54.2191ZM72.4706 53.779H81.1279V51.2998H72.4706V53.779ZM81.1279 53.779C86.1861 53.779 89.9009 55.0763 92.4577 57.4999L94.1633 55.7006C91.0081 52.7097 86.6011 51.2998 81.1279 51.2998V53.779ZM92.4624 57.5043C95.0332 59.9161 96.3995 63.4315 96.3995 68.2474H98.8787C98.8787 62.9483 97.3593 58.6989 94.1586 55.6962L92.4624 57.5043ZM96.3995 68.2474C96.3995 70.6559 96.0453 72.7489 95.3643 74.5467L97.6827 75.4248C98.4892 73.2956 98.8787 70.8963 98.8787 68.2474H96.3995ZM95.3607 74.5564C94.7097 76.3194 93.7427 77.7901 92.4627 78.9902L94.1583 80.7988C95.7343 79.3214 96.9093 77.5196 97.6863 75.4151L95.3607 74.5564ZM92.4532 78.9991C91.1984 80.2005 89.6322 81.1401 87.7268 81.8028L88.5412 84.1444C90.7413 83.3792 92.6261 82.266 94.1678 80.7899L92.4532 78.9991ZM87.7368 81.7994C85.8682 82.4314 83.6716 82.7604 81.1279 82.7604V85.2396C83.8796 85.2396 86.3538 84.8843 88.5312 84.1479L87.7368 81.7994ZM81.1279 82.7604H72.4706V85.2396H81.1279V82.7604ZM75.1481 80.5093H80.7709V78.0302H75.1481V80.5093ZM80.7709 80.5093C82.71 80.5093 84.4406 80.2754 85.9377 79.7763L85.1538 77.4244C83.9734 77.8178 82.5207 78.0302 80.7709 78.0302V80.5093ZM85.953 79.7712C87.472 79.2428 88.7708 78.4671 89.8138 77.4241L88.0607 75.6711C87.3187 76.4131 86.3566 77.0059 85.1385 77.4296L85.953 79.7712ZM89.8138 77.4241C90.8879 76.3501 91.6681 75.0303 92.1685 73.4958L89.8115 72.7272C89.4194 73.9297 88.8311 74.9007 88.0607 75.6711L89.8138 77.4241ZM92.1709 73.4884C92.6645 71.9417 92.899 70.1885 92.899 68.2474H90.4198C90.4198 69.9953 90.208 71.4848 89.8091 72.7346L92.1709 73.4884ZM92.899 68.2474C92.899 64.3741 91.9464 61.2478 89.8138 59.1152L88.0607 60.8683C89.5576 62.3652 90.4198 64.7426 90.4198 68.2474H92.899ZM89.8138 59.1152C87.6846 56.986 84.5915 56.03 80.7709 56.03V58.5092C84.2093 58.5092 86.5604 59.368 88.0607 60.8683L89.8138 59.1152ZM80.7709 56.03H75.1481V58.5092H80.7709V56.03ZM73.9085 57.2696V79.2698H76.3877V57.2696H73.9085ZM104.186 83.2414L103.285 84.0925L103.31 84.1183L103.335 84.1426L104.186 83.2414ZM104.186 53.3426L103.31 52.4661L104.186 53.3426ZM124.089 53.1195L123.213 53.996L123.229 54.0122L123.246 54.0279L124.089 53.1195ZM108.917 57.0911V55.8515H107.677V57.0911H108.917ZM108.917 65.7484H107.677V66.988H108.917V65.7484ZM123.152 66.3285L124.029 65.452V65.452L123.152 66.3285ZM123.152 69.72L124.029 70.5965V70.5965L123.152 69.72ZM108.917 70.3001V69.0605H107.677V70.3001H108.917ZM108.917 79.4482H107.677V80.6878H108.917V79.4482ZM124.089 80.0284L123.213 80.9049L123.229 80.9211L123.246 80.9367L124.089 80.0284ZM124.089 83.4199L123.246 82.5115L123.229 82.5271L123.213 82.5434L124.089 83.4199ZM106.462 82.7604C105.689 82.7604 105.275 82.5644 105.038 82.3402L103.335 84.1426C104.169 84.9299 105.272 85.2396 106.462 85.2396V82.7604ZM105.088 82.3902C104.863 82.1529 104.667 81.7387 104.667 80.9655H102.188C102.188 82.1558 102.498 83.2589 103.285 84.0925L105.088 82.3902ZM104.667 80.9655V55.5739H102.188V80.9655H104.667ZM104.667 55.5739C104.667 54.7956 104.865 54.4167 105.063 54.2191L103.31 52.4661C102.496 53.28 102.188 54.3886 102.188 55.5739H104.667ZM105.063 54.2191C105.303 53.9793 105.708 53.779 106.462 53.779V51.2998C105.253 51.2998 104.141 51.635 103.31 52.4661L105.063 54.2191ZM106.462 53.779H122.393V51.2998H106.462V53.779ZM122.393 53.779C122.93 53.779 123.132 53.9154 123.213 53.996L124.966 52.243C124.273 51.5501 123.345 51.2998 122.393 51.2998V53.779ZM123.246 54.0279C123.348 54.1228 123.474 54.3071 123.474 54.7706H125.954C125.954 53.8062 125.663 52.8897 124.933 52.2111L123.246 54.0279ZM123.474 54.7706C123.474 55.2765 123.339 55.5077 123.213 55.6345L124.966 57.3875C125.672 56.6813 125.954 55.7522 125.954 54.7706H123.474ZM123.213 55.6345C123.132 55.7151 122.93 55.8515 122.393 55.8515V58.3307C123.345 58.3307 124.273 58.0804 124.966 57.3875L123.213 55.6345ZM122.393 55.8515H108.917V58.3307H122.393V55.8515ZM107.677 57.0911V65.7484H110.156V57.0911H107.677ZM108.917 66.988H121.412V64.5088H108.917V66.988ZM121.412 66.988C121.994 66.988 122.203 67.1327 122.276 67.205L124.029 65.452C123.327 64.7508 122.376 64.5088 121.412 64.5088V66.988ZM122.276 67.205C122.356 67.2856 122.493 67.4879 122.493 68.0243H124.972C124.972 67.0731 124.721 66.1449 124.029 65.452L122.276 67.205ZM122.493 68.0243C122.493 68.5606 122.356 68.7629 122.276 68.8435L124.029 70.5965C124.721 69.9036 124.972 68.9754 124.972 68.0243H122.493ZM122.276 68.8435C122.203 68.9158 121.994 69.0605 121.412 69.0605V71.5397C122.376 71.5397 123.327 71.2977 124.029 70.5965L122.276 68.8435ZM121.412 69.0605H108.917V71.5397H121.412V69.0605ZM107.677 70.3001V79.4482H110.156V70.3001H107.677ZM108.917 80.6878H122.393V78.2087H108.917V80.6878ZM122.393 80.6878C122.93 80.6878 123.132 80.8243 123.213 80.9049L124.966 79.1519C124.273 78.459 123.345 78.2087 122.393 78.2087V80.6878ZM123.246 80.9367C123.338 81.0223 123.474 81.2131 123.474 81.7241H125.954C125.954 80.7476 125.674 79.8079 124.933 79.12L123.246 80.9367ZM123.474 81.7241C123.474 82.2351 123.338 82.4259 123.246 82.5115L124.933 84.3282C125.674 83.6403 125.954 82.7006 125.954 81.7241H123.474ZM123.213 82.5434C123.132 82.624 122.93 82.7604 122.393 82.7604V85.2396C123.345 85.2396 124.273 84.9893 124.966 84.2964L123.213 82.5434ZM122.393 82.7604H106.462V85.2396H122.393V82.7604ZM130.724 83.643L129.82 84.4908L129.833 84.5054L129.848 84.5195L130.724 83.643ZM130.724 52.941L129.821 52.0914L129.82 52.0932L130.724 52.941ZM134.071 52.584L133.286 53.5434L133.333 53.5818L133.383 53.6154L134.071 52.584ZM135.32 53.8335L136.302 53.0769L136.295 53.0679L136.288 53.0591L135.32 53.8335ZM152.412 76.0121V77.2517H154.932L153.394 75.2555L152.412 76.0121ZM151.252 76.0121H150.012V77.2517H151.252V76.0121ZM151.921 52.8964L151.044 52.0199L151.03 52.034L151.017 52.0486L151.921 52.8964ZM155.893 52.8964L154.988 53.7442L154.988 53.7442L155.893 52.8964ZM155.937 83.643L155.004 82.8267L155.937 83.643ZM152.59 83.9554L151.885 84.9746L151.902 84.9866L151.92 84.9981L152.59 83.9554ZM151.296 82.6613L150.313 83.4167L150.321 83.4262L150.328 83.4356L151.296 82.6613ZM134.249 60.4826V59.243H131.733L133.267 61.238L134.249 60.4826ZM135.365 60.4826H136.605V59.243H135.365V60.4826ZM134.696 83.643L133.791 82.7952L134.696 83.643ZM132.732 83.1174C132.101 83.1174 131.783 82.9494 131.601 82.7665L129.848 84.5195C130.617 85.2886 131.638 85.5966 132.732 85.5966V83.1174ZM131.628 82.7952C131.466 82.6223 131.294 82.2853 131.294 81.5902H128.815C128.815 82.6802 129.089 83.7117 129.82 84.4908L131.628 82.7952ZM131.294 81.5902V55.0384H128.815V81.5902H131.294ZM131.294 55.0384C131.294 54.3006 131.473 53.9549 131.628 53.7888L129.82 52.0932C129.083 52.8791 128.815 53.9316 128.815 55.0384H131.294ZM131.627 53.7906C131.851 53.5528 132.125 53.422 132.554 53.422V50.9428C131.495 50.9428 130.55 51.3177 129.821 52.0914L131.627 53.7906ZM132.554 53.422C132.82 53.422 133.006 53.4485 133.129 53.4811C133.25 53.5132 133.288 53.545 133.286 53.5434L134.856 51.6246C134.207 51.0933 133.359 50.9428 132.554 50.9428V53.422ZM133.383 53.6154C133.582 53.748 133.904 54.0479 134.352 54.6079L136.288 53.0591C135.784 52.4291 135.274 51.896 134.759 51.5526L133.383 53.6154ZM134.339 54.5901L151.43 76.7688L153.394 75.2555L136.302 53.0769L134.339 54.5901ZM152.412 74.7725H151.252V77.2517H152.412V74.7725ZM152.491 76.0121V54.9045H150.012V76.0121H152.491ZM152.491 54.9045C152.491 54.2525 152.656 53.9243 152.825 53.7442L151.017 52.0486C150.293 52.8204 150.012 53.831 150.012 54.9045H152.491ZM152.797 53.7729C152.98 53.59 153.298 53.422 153.929 53.422V50.9428C152.835 50.9428 151.813 51.2508 151.044 52.0199L152.797 53.7729ZM153.929 53.422C154.565 53.422 154.845 53.5915 154.988 53.7442L156.797 52.0486C156.047 51.2492 155.019 50.9428 153.929 50.9428V53.422ZM154.988 53.7442C155.157 53.9243 155.322 54.2525 155.322 54.9045H157.801C157.801 53.831 157.52 52.8204 156.797 52.0486L154.988 53.7442ZM155.322 54.9045V81.6795H157.801V54.9045H155.322ZM155.322 81.6795C155.322 82.3091 155.167 82.6402 155.004 82.8267L156.87 84.4593C157.54 83.6938 157.801 82.7159 157.801 81.6795H155.322ZM155.004 82.8267C154.855 82.9974 154.649 83.1174 154.241 83.1174V85.5966C155.262 85.5966 156.186 85.2407 156.87 84.4593L155.004 82.8267ZM154.241 83.1174C153.707 83.1174 153.414 83.0116 153.261 82.9127L151.92 84.9981C152.599 85.4347 153.407 85.5966 154.241 85.5966V83.1174ZM153.296 82.9362C153.05 82.7659 152.705 82.4384 152.264 81.8869L150.328 83.4356C150.839 84.0741 151.357 84.6094 151.885 84.9746L153.296 82.9362ZM152.279 81.9058L135.232 59.7272L133.267 61.238L150.313 83.4167L152.279 81.9058ZM134.249 61.7222H135.365V59.243H134.249V61.7222ZM134.125 60.4826V81.5902H136.605V60.4826H134.125ZM134.125 81.5902C134.125 82.2853 133.953 82.6223 133.791 82.7952L135.6 84.4908C136.33 83.7117 136.605 82.6802 136.605 81.5902H134.125ZM133.791 82.7952C133.648 82.9478 133.368 83.1174 132.732 83.1174V85.5966C133.822 85.5966 134.851 85.2902 135.6 84.4908L133.791 82.7952ZM171.736 83.5984L170.81 84.4219L170.834 84.4491L170.86 84.4749L171.736 83.5984ZM171.022 57.3142H172.262V56.0747H171.022V57.3142ZM160.491 56.6895L159.585 57.5353L159.614 57.5665L159.645 57.5957L160.491 56.6895ZM160.491 53.1641L161.334 54.0725L161.337 54.0703L160.491 53.1641ZM187.221 53.1641L186.345 54.0406L186.376 54.0719L186.41 54.1009L187.221 53.1641ZM176.734 57.3142V56.0747H175.495V57.3142H176.734ZM176.021 83.5984L176.923 84.4479L176.935 84.4351L176.947 84.4219L176.021 83.5984ZM173.878 83.1174C173.186 83.1174 172.824 82.9332 172.613 82.7219L170.86 84.4749C171.66 85.2751 172.727 85.5966 173.878 85.5966V83.1174ZM172.663 82.7748C172.441 82.5253 172.262 82.12 172.262 81.4118H169.783C169.783 82.548 170.08 83.6004 170.81 84.4219L172.663 82.7748ZM172.262 81.4118V57.3142H169.783V81.4118H172.262ZM171.022 56.0747H162.321V58.5538H171.022V56.0747ZM162.321 56.0747C161.774 56.0747 161.497 55.9326 161.337 55.7833L159.645 57.5957C160.378 58.2794 161.32 58.5538 162.321 58.5538V56.0747ZM161.397 55.8437C161.24 55.6749 161.106 55.4066 161.106 54.9045H158.627C158.627 55.8899 158.909 56.8116 159.585 57.5353L161.397 55.8437ZM161.106 54.9045C161.106 54.3466 161.252 54.1493 161.334 54.0725L159.648 52.2558C158.897 52.9524 158.627 53.9154 158.627 54.9045H161.106ZM161.337 54.0703C161.497 53.921 161.774 53.779 162.321 53.779V51.2998C161.32 51.2998 160.378 51.5743 159.645 52.2579L161.337 54.0703ZM162.321 53.779H185.436V51.2998H162.321V53.779ZM185.436 53.779C185.988 53.779 186.227 53.9226 186.345 54.0406L188.098 52.2876C187.383 51.5726 186.432 51.2998 185.436 51.2998V53.779ZM186.41 54.1009C186.506 54.1843 186.651 54.372 186.651 54.9045H189.13C189.13 53.89 188.829 52.9175 188.033 52.2274L186.41 54.1009ZM186.651 54.9045C186.651 55.3827 186.517 55.6404 186.345 55.813L188.098 57.566C188.818 56.8461 189.13 55.9138 189.13 54.9045H186.651ZM186.345 55.813C186.227 55.931 185.988 56.0747 185.436 56.0747V58.5538C186.432 58.5538 187.383 58.281 188.098 57.566L186.345 55.813ZM185.436 56.0747H176.734V58.5538H185.436V56.0747ZM175.495 57.3142V81.4118H177.974V57.3142H175.495ZM175.495 81.4118C175.495 82.12 175.316 82.5253 175.094 82.7748L176.947 84.4219C177.677 83.6004 177.974 82.548 177.974 81.4118H175.495ZM175.118 82.7488C174.953 82.9242 174.62 83.1174 173.878 83.1174V85.5966C175.041 85.5966 176.136 85.2841 176.923 84.4479L175.118 82.7488ZM186.238 83.8661L185.472 84.8408L185.489 84.8536L185.505 84.8657L186.238 83.8661ZM185.48 82.572L184.255 82.7653L184.257 82.7758L185.48 82.572ZM185.792 80.6978L184.662 80.1879L184.659 80.1957L184.655 80.2035L185.792 80.6978ZM197.573 54.5921L198.703 55.102L198.704 55.0992L197.573 54.5921ZM198.956 52.7625L199.644 53.7939L199.65 53.7898L199.656 53.7855L198.956 52.7625ZM202.705 52.7625L201.979 53.7674L202.01 53.79L202.043 53.8106L202.705 52.7625ZM204.133 54.5921L203.002 55.0992L203.004 55.1036L204.133 54.5921ZM215.958 80.6978L214.829 81.2092L214.835 81.221L214.84 81.2326L215.958 80.6978ZM215.557 83.9108L216.277 84.9194L216.3 84.903L216.323 84.8855L215.557 83.9108ZM211.942 83.7769L211.096 84.6831L211.128 84.7121L211.161 84.7389L211.942 83.7769ZM210.737 81.9026L211.877 81.4143L211.876 81.4125L210.737 81.9026ZM207.837 75.1642L208.511 74.1241L205.083 71.9022L206.698 75.6544L207.837 75.1642ZM210.246 76.7261V77.9657H214.438L210.921 75.6859L210.246 76.7261ZM191.415 76.7261L190.741 75.6859L187.223 77.9657H191.415V76.7261ZM193.824 75.1642L194.966 75.648L196.544 71.9244L193.15 74.1241L193.824 75.1642ZM190.968 81.9026L192.1 82.4097L192.105 82.3981L192.11 82.3864L190.968 81.9026ZM189.764 83.7769L188.92 82.8685L189.764 83.7769ZM200.786 58.7422V57.5027H199.962L199.643 58.2618L200.786 58.7422ZM194.538 73.6024L193.576 74.384L194.88 75.9885L195.681 74.0828L194.538 73.6024ZM193.378 72.1744V70.9348H190.774L192.416 72.956L193.378 72.1744ZM208.283 72.1744L209.26 72.9375L210.824 70.9348H208.283V72.1744ZM207.167 73.6024L206.026 74.0857L206.847 76.0256L208.144 74.3655L207.167 73.6024ZM200.875 58.7422L202.017 58.2589L201.696 57.5027H200.875V58.7422ZM187.979 83.1174C187.452 83.1174 187.15 82.9979 186.971 82.8665L185.505 84.8657C186.218 85.3888 187.078 85.5966 187.979 85.5966V83.1174ZM187.004 82.8914C186.837 82.7604 186.742 82.6072 186.702 82.3682L184.257 82.7758C184.396 83.6078 184.806 84.3174 185.472 84.8408L187.004 82.8914ZM186.704 82.3787C186.661 82.1072 186.697 81.7246 186.929 81.192L184.655 80.2035C184.292 81.0394 184.12 81.9063 184.255 82.7653L186.704 82.3787ZM186.922 81.2076L198.703 55.102L196.443 54.0822L184.662 80.1879L186.922 81.2076ZM198.704 55.0992C199.037 54.3555 199.374 53.9741 199.644 53.7939L198.269 51.7311C197.468 52.2648 196.882 53.1032 196.442 54.0851L198.704 55.0992ZM199.656 53.7855C200.006 53.5461 200.4 53.422 200.875 53.422V50.9428C199.923 50.9428 199.037 51.2054 198.256 51.7395L199.656 53.7855ZM200.875 53.422C201.309 53.422 201.663 53.539 201.979 53.7674L203.431 51.7576C202.676 51.2125 201.81 50.9428 200.875 50.9428V53.422ZM202.043 53.8106C202.333 53.9937 202.675 54.3706 203.002 55.0992L205.264 54.0851C204.817 53.0882 204.207 52.2453 203.367 51.7144L202.043 53.8106ZM203.004 55.1036L214.829 81.2092L217.088 80.1863L205.262 54.0806L203.004 55.1036ZM214.84 81.2326C215.094 81.763 215.13 82.1304 215.091 82.3787L217.54 82.7653C217.679 81.8831 217.478 81.001 217.077 80.1629L214.84 81.2326ZM215.091 82.3787C215.046 82.662 214.941 82.8184 214.791 82.936L216.323 84.8855C217.006 84.3486 217.406 83.6125 217.54 82.7653L215.091 82.3787ZM214.836 82.9021C214.691 83.0062 214.417 83.1174 213.906 83.1174V85.5966C214.762 85.5966 215.59 85.4103 216.277 84.9194L214.836 82.9021ZM213.906 83.1174C213.256 83.1174 212.911 82.967 212.724 82.8148L211.161 84.7389C211.925 85.3602 212.89 85.5966 213.906 85.5966V83.1174ZM212.788 82.8707C212.513 82.6143 212.196 82.1591 211.877 81.4143L209.598 82.3909C209.993 83.3122 210.479 84.1065 211.096 84.6831L212.788 82.8707ZM211.876 81.4125L208.975 74.6741L206.698 75.6544L209.599 82.3927L211.876 81.4125ZM207.163 76.2044L209.572 77.7663L210.921 75.6859L208.511 74.1241L207.163 76.2044ZM210.246 75.4865H191.415V77.9657H210.246V75.4865ZM192.089 77.7663L194.499 76.2044L193.15 74.1241L190.741 75.6859L192.089 77.7663ZM192.683 74.6805L189.827 81.4189L192.11 82.3864L194.966 75.648L192.683 74.6805ZM189.837 81.3956C189.479 82.1941 189.16 82.6457 188.92 82.8685L190.607 84.6852C191.2 84.1346 191.684 83.3366 192.1 82.4097L189.837 81.3956ZM188.92 82.8685C188.805 82.9755 188.554 83.1174 187.979 83.1174V85.5966C188.95 85.5966 189.889 85.3518 190.607 84.6852L188.92 82.8685ZM199.643 58.2618L193.396 73.122L195.681 74.0828L201.929 59.2227L199.643 58.2618ZM195.501 72.8207L194.34 71.3927L192.416 72.956L193.576 74.384L195.501 72.8207ZM193.378 73.414H208.283V70.9348H193.378V73.414ZM207.306 71.4112L206.191 72.8392L208.144 74.3655L209.26 72.9375L207.306 71.4112ZM208.309 73.119L202.017 58.2589L199.734 59.2256L206.026 74.0857L208.309 73.119ZM200.875 57.5027H200.786V59.9818H200.875V57.5027ZM221.632 83.2414L220.731 84.0925L220.743 84.1054L220.756 84.1179L221.632 83.2414ZM221.588 53.1641L220.711 52.2876V52.2876L221.588 53.1641ZM225.827 53.1641L224.924 54.0137L224.95 54.041L224.977 54.0668L225.827 53.1641ZM226.586 79.1359H225.346V80.3755H226.586V79.1359ZM241.356 79.7606L240.48 80.6371L240.495 80.6522L240.511 80.6668L241.356 79.7606ZM241.356 83.3753L242.233 84.2518L241.356 83.3753ZM223.774 82.7604C223.081 82.7604 222.72 82.5762 222.509 82.3649L220.756 84.1179C221.556 84.9181 222.623 85.2396 223.774 85.2396V82.7604ZM222.533 82.3902C222.296 82.1391 222.113 81.744 222.113 81.0547H219.634C219.634 82.21 219.957 83.2726 220.731 84.0925L222.533 82.3902ZM222.113 81.0547V55.3061H219.634V81.0547H222.113ZM222.113 55.3061C222.113 54.5452 222.302 54.2022 222.464 54.0406L220.711 52.2876C219.921 53.0781 219.634 54.163 219.634 55.3061H222.113ZM222.464 54.0406C222.675 53.8293 223.037 53.6451 223.73 53.6451V51.1659C222.578 51.1659 221.511 51.4874 220.711 52.2876L222.464 54.0406ZM223.73 53.6451C224.427 53.6451 224.752 53.8309 224.924 54.0137L226.73 52.3146C225.95 51.4859 224.876 51.1659 223.73 51.1659V53.6451ZM224.977 54.0668C225.153 54.2318 225.346 54.5651 225.346 55.3061H227.825C227.825 54.1432 227.513 53.0484 226.676 52.2615L224.977 54.0668ZM225.346 55.3061V79.1359H227.825V55.3061H225.346ZM226.586 80.3755H239.527V77.8963H226.586V80.3755ZM239.527 80.3755C240.124 80.3755 240.37 80.5274 240.48 80.6371L242.233 78.8841C241.51 78.1609 240.536 77.8963 239.527 77.8963V80.3755ZM240.511 80.6668C240.642 80.7897 240.786 81.0181 240.786 81.5456H243.265C243.265 80.5261 242.963 79.5645 242.202 78.8544L240.511 80.6668ZM240.786 81.5456C240.786 82.0692 240.643 82.3353 240.48 82.4987L242.233 84.2518C242.962 83.5227 243.265 82.569 243.265 81.5456H240.786ZM240.48 82.4987C240.37 82.6085 240.124 82.7604 239.527 82.7604V85.2396C240.536 85.2396 241.51 84.975 242.233 84.2518L240.48 82.4987ZM239.527 82.7604H223.774V85.2396H239.527V82.7604Z" fill="white"/>
</svg>
