<svg width="32" height="32" viewBox="0 0 32 32" fill="none" xmlns="http://www.w3.org/2000/svg">
<path d="M22.997 24C14.466 24.012 7.99101 17.46 8.00001 9.003C8.00001 8.45 8.44801 8 9.00001 8H11.64C12.135 8 12.556 8.364 12.629 8.854C12.8031 10.0291 13.1449 11.173 13.644 12.251L13.747 12.473C13.8162 12.6224 13.8311 12.7912 13.7891 12.9504C13.7471 13.1096 13.6509 13.2492 13.517 13.345C12.699 13.929 12.387 15.104 13.024 16.02C13.823 17.17 14.83 18.178 15.98 18.977C16.897 19.613 18.072 19.301 18.655 18.484C18.7507 18.3497 18.8904 18.2531 19.0498 18.211C19.2092 18.1688 19.3784 18.1836 19.528 18.253L19.749 18.355C20.827 18.855 21.971 19.197 23.146 19.371C23.636 19.444 24 19.865 24 20.361V23C24 23.1314 23.9741 23.2615 23.9238 23.3829C23.8735 23.5043 23.7997 23.6146 23.7068 23.7075C23.6138 23.8003 23.5034 23.874 23.382 23.9242C23.2606 23.9744 23.1304 24.0001 22.999 24H22.997Z" fill="white"/>
<rect x="0.5" y="0.5" width="31" height="31" rx="5.5" stroke="white"/>
</svg>
