<svg width="32" height="33" viewBox="0 0 32 33" fill="none" xmlns="http://www.w3.org/2000/svg">
<path d="M16 25.5C14.7369 24.4226 13.5662 23.2415 12.5 21.969C10.9 20.058 9 17.212 9 14.5C8.99931 13.115 9.40951 11.7608 10.1787 10.609C10.9479 9.45721 12.0415 8.55946 13.3211 8.0294C14.6007 7.49934 16.0087 7.36079 17.3671 7.63129C18.7255 7.90179 19.9731 8.56918 20.952 9.549C21.6038 10.1979 22.1203 10.9695 22.4719 11.8194C22.8234 12.6692 23.0029 13.5803 23 14.5C23 17.212 21.1 20.058 19.5 21.969C18.4338 23.2415 17.2631 24.4226 16 25.5ZM16 11.5C15.2044 11.5 14.4413 11.8161 13.8787 12.3787C13.3161 12.9413 13 13.7044 13 14.5C13 15.2957 13.3161 16.0587 13.8787 16.6213C14.4413 17.1839 15.2044 17.5 16 17.5C16.7957 17.5 17.5587 17.1839 18.1213 16.6213C18.6839 16.0587 19 15.2957 19 14.5C19 13.7044 18.6839 12.9413 18.1213 12.3787C17.5587 11.8161 16.7957 11.5 16 11.5Z" fill="white"/>
<rect x="0.5" y="1" width="31" height="31" rx="5.5" stroke="white"/>
</svg>
