<svg width="38" height="38" viewBox="0 0 38 38" fill="none" xmlns="http://www.w3.org/2000/svg">
<circle cx="19" cy="19" r="19" fill="#0FC0C6"/>
<path fill-rule="evenodd" clip-rule="evenodd" d="M13.5118 19C13.5118 15.9689 15.9689 13.5118 19 13.5118C22.0311 13.5118 24.4882 15.9689 24.4882 19C24.4882 22.0311 22.0311 24.4882 19 24.4882C15.9689 24.4882 13.5118 22.0311 13.5118 19ZM19 22.5625C17.0325 22.5625 15.4375 20.9675 15.4375 19C15.4375 17.0325 17.0325 15.4375 19 15.4375C20.9675 15.4375 22.5625 17.0325 22.5625 19C22.5625 20.9675 20.9675 22.5625 19 22.5625Z" fill="white"/>
<path d="M24.705 14.5775C25.4133 14.5775 25.9875 14.0033 25.9875 13.295C25.9875 12.5867 25.4133 12.0125 24.705 12.0125C23.9967 12.0125 23.4225 12.5867 23.4225 13.295C23.4225 14.0033 23.9967 14.5775 24.705 14.5775Z" fill="white"/>
<path fill-rule="evenodd" clip-rule="evenodd" d="M19 8.3125C16.0974 8.3125 15.7335 8.3248 14.5936 8.37681C13.456 8.4287 12.6791 8.60938 11.9993 8.8736C11.2965 9.14668 10.7005 9.51213 10.1063 10.1063C9.51213 10.7005 9.14669 11.2965 8.8736 11.9993C8.60938 12.6791 8.4287 13.456 8.37681 14.5936C8.3248 15.7335 8.3125 16.0974 8.3125 19C8.3125 21.9025 8.3248 22.2665 8.37681 23.4064C8.4287 24.544 8.60938 25.3209 8.8736 26.0007C9.14669 26.7035 9.51213 27.2995 10.1063 27.8937C10.7005 28.4879 11.2965 28.8533 11.9993 29.1264C12.6791 29.3906 13.456 29.5713 14.5936 29.6232C15.7335 29.6752 16.0974 29.6875 19 29.6875C21.9026 29.6875 22.2665 29.6752 23.4064 29.6232C24.544 29.5713 25.3209 29.3906 26.0007 29.1264C26.7035 28.8533 27.2995 28.4879 27.8937 27.8937C28.4879 27.2995 28.8533 26.7035 29.1264 26.0007C29.3906 25.3209 29.5713 24.544 29.6232 23.4064C29.6752 22.2665 29.6875 21.9025 29.6875 19C29.6875 16.0974 29.6752 15.7335 29.6232 14.5936C29.5713 13.456 29.3906 12.6791 29.1264 11.9993C28.8533 11.2965 28.4879 10.7005 27.8937 10.1063C27.2995 9.51213 26.7035 9.14668 26.0007 8.8736C25.3209 8.60938 24.544 8.4287 23.4064 8.37681C22.2665 8.3248 21.9026 8.3125 19 8.3125ZM19 10.2382C21.8537 10.2382 22.1917 10.2491 23.3187 10.3005C24.3607 10.348 24.9266 10.5221 25.3032 10.6685C25.802 10.8624 26.1581 11.094 26.532 11.468C26.9061 11.8419 27.1376 12.198 27.3315 12.6968C27.4779 13.0734 27.652 13.6393 27.6995 14.6813C27.7509 15.8083 27.7618 16.1463 27.7618 19C27.7618 21.8537 27.7509 22.1917 27.6995 23.3187C27.652 24.3607 27.4779 24.9266 27.3315 25.3032C27.1376 25.802 26.9061 26.1581 26.532 26.532C26.1581 26.906 25.802 27.1376 25.3032 27.3315C24.9266 27.4779 24.3607 27.652 23.3187 27.6995C22.1919 27.7509 21.8539 27.7618 19 27.7618C16.1461 27.7618 15.8082 27.7509 14.6813 27.6995C13.6393 27.652 13.0734 27.4779 12.6968 27.3315C12.198 27.1376 11.8419 26.906 11.468 26.532C11.094 26.1581 10.8624 25.802 10.6685 25.3032C10.5221 24.9266 10.348 24.3607 10.3005 23.3187C10.2491 22.1917 10.2382 21.8537 10.2382 19C10.2382 16.1463 10.2491 15.8083 10.3005 14.6813C10.348 13.6393 10.5221 13.0734 10.6685 12.6968C10.8624 12.198 11.094 11.8419 11.468 11.468C11.8419 11.094 12.198 10.8624 12.6968 10.6685C13.0734 10.5221 13.6393 10.348 14.6813 10.3005C15.8083 10.2491 16.1463 10.2382 19 10.2382Z" fill="white"/>
</svg>
