<svg width="64" height="65" viewBox="0 0 64 65" fill="none" xmlns="http://www.w3.org/2000/svg">
<path d="M32 50.4999C29.4739 48.3452 27.1324 45.983 25 43.4379C21.8 39.6159 18 33.9239 18 28.4999C17.9986 25.7299 18.819 23.0216 20.3574 20.718C21.8958 18.4144 24.0829 16.6189 26.6421 15.5587C29.2013 14.4986 32.0175 14.2215 34.7342 14.7625C37.451 15.3035 39.9462 16.6383 41.904 18.5979C43.2075 19.8957 44.2407 21.439 44.9438 23.1387C45.6469 24.8384 46.0059 26.6606 46 28.4999C46 33.9239 42.2 39.6159 39 43.4379C36.8676 45.983 34.5261 48.3452 32 50.4999ZM32 22.4999C30.4087 22.4999 28.8826 23.1321 27.7574 24.2573C26.6321 25.3825 26 26.9086 26 28.4999C26 30.0912 26.6321 31.6174 27.7574 32.7426C28.8826 33.8678 30.4087 34.4999 32 34.4999C33.5913 34.4999 35.1174 33.8678 36.2426 32.7426C37.3679 31.6174 38 30.0912 38 28.4999C38 26.9086 37.3679 25.3825 36.2426 24.2573C35.1174 23.1321 33.5913 22.4999 32 22.4999Z" fill="#0FC0C6"/>
<rect x="0.5" y="1" width="63" height="63" rx="5.5" stroke="#0FC0C6"/>
</svg>
