<svg width="48" height="49" viewBox="0 0 48 49" fill="none" xmlns="http://www.w3.org/2000/svg">
<path d="M24 42.4999C21.4739 40.3452 19.1324 37.983 17 35.4379C13.8 31.6159 10 25.9239 10 20.4999C9.99861 17.7299 10.819 15.0216 12.3574 12.718C13.8958 10.4144 16.0829 8.61886 18.6421 7.55874C21.2013 6.49861 24.0175 6.22152 26.7342 6.76252C29.451 7.30353 31.9462 8.63831 33.904 10.5979C35.2075 11.8957 36.2407 13.439 36.9438 15.1387C37.6469 16.8384 38.0059 18.6606 38 20.4999C38 25.9239 34.2 31.6159 31 35.4379C28.8676 37.983 26.5261 40.3452 24 42.4999ZM24 14.4999C22.4087 14.4999 20.8826 15.1321 19.7574 16.2573C18.6321 17.3825 18 18.9086 18 20.4999C18 22.0912 18.6321 23.6174 19.7574 24.7426C20.8826 25.8678 22.4087 26.4999 24 26.4999C25.5913 26.4999 27.1174 25.8678 28.2426 24.7426C29.3679 23.6174 30 22.0912 30 20.4999C30 18.9086 29.3679 17.3825 28.2426 16.2573C27.1174 15.1321 25.5913 14.4999 24 14.4999Z" fill="#0FC0C6"/>
</svg>
