<svg width="48" height="49" viewBox="0 0 48 49" fill="none" xmlns="http://www.w3.org/2000/svg">
<path d="M37.994 40.5C20.932 40.524 7.98202 27.42 8.00002 10.506C8.00002 9.4 8.89602 8.5 10 8.5H15.28C16.27 8.5 17.112 9.228 17.258 10.208C17.6062 12.5581 18.2899 14.8461 19.288 17.002L19.494 17.446C19.6324 17.7448 19.6622 18.0825 19.5782 18.4009C19.4942 18.7192 19.3018 18.9983 19.034 19.19C17.398 20.358 16.774 22.708 18.048 24.54C19.646 26.84 21.66 28.856 23.96 30.454C25.794 31.726 28.144 31.102 29.31 29.468C29.5015 29.1995 29.7808 29.0063 30.0996 28.9219C30.4185 28.8376 30.7568 28.8673 31.056 29.006L31.498 29.21C33.654 30.21 35.942 30.894 38.292 31.242C39.272 31.388 40 32.23 40 33.222V38.5C40 38.7628 39.9482 39.023 39.8476 39.2658C39.747 39.5086 39.5995 39.7292 39.4135 39.9149C39.2276 40.1007 39.0069 40.2479 38.764 40.3483C38.5211 40.4487 38.2608 40.5003 37.998 40.5H37.994Z" fill="#0FC0C6"/>
</svg>
