<svg width="64" height="65" viewBox="0 0 64 65" fill="none" xmlns="http://www.w3.org/2000/svg">
<path d="M45.994 48.5C28.932 48.524 15.982 35.42 16 18.506C16 17.4 16.896 16.5 18 16.5H23.28C24.27 16.5 25.112 17.228 25.258 18.208C25.6062 20.5581 26.2899 22.8461 27.288 25.002L27.494 25.446C27.6324 25.7448 27.6622 26.0825 27.5782 26.4009C27.4942 26.7192 27.3018 26.9983 27.034 27.19C25.398 28.358 24.774 30.708 26.048 32.54C27.646 34.84 29.66 36.856 31.96 38.454C33.794 39.726 36.144 39.102 37.31 37.468C37.5015 37.1995 37.7808 37.0063 38.0996 36.9219C38.4185 36.8376 38.7568 36.8673 39.056 37.006L39.498 37.21C41.654 38.21 43.942 38.894 46.292 39.242C47.272 39.388 48 40.23 48 41.222V46.5C48 46.7628 47.9482 47.0231 47.8476 47.2658C47.747 47.5086 47.5995 47.7292 47.4135 47.9149C47.2276 48.1007 47.0069 48.2479 46.764 48.3483C46.5211 48.4487 46.2608 48.5003 45.998 48.5H45.994Z" fill="#0FC0C6"/>
<rect x="0.5" y="1" width="63" height="63" rx="5.5" stroke="#0FC0C6"/>
</svg>
