<svg width="15" height="15" viewBox="0 0 15 15" fill="none" xmlns="http://www.w3.org/2000/svg">
<path d="M13.7134 14.5958C6.2081 14.6063 0.511622 8.84211 0.519539 1.40194C0.519539 0.915426 0.913675 0.519531 1.39931 0.519531H3.72189C4.15737 0.519531 4.52775 0.839766 4.59197 1.27085C4.74514 2.30462 5.04586 3.31107 5.48494 4.25942L5.57555 4.45472C5.63642 4.58615 5.64952 4.7347 5.61258 4.87475C5.57564 5.0148 5.49098 5.13757 5.37321 5.22188C4.65356 5.73566 4.37907 6.76939 4.93948 7.57525C5.64242 8.58698 6.52834 9.47379 7.54007 10.1767C8.34681 10.7362 9.38054 10.4618 9.89344 9.743C9.97767 9.62487 10.1005 9.53989 10.2408 9.50278C10.381 9.46567 10.5299 9.47875 10.6615 9.53977L10.8559 9.6295C11.8043 10.0694 12.8107 10.3703 13.8445 10.5233C14.2756 10.5876 14.5958 10.958 14.5958 11.3943V13.716C14.5958 13.8316 14.573 13.9461 14.5287 14.0529C14.4845 14.1597 14.4196 14.2567 14.3378 14.3384C14.256 14.4201 14.1589 14.4849 14.0521 14.5291C13.9452 14.5732 13.8308 14.5959 13.7151 14.5958H13.7134Z" fill="black"/>
</svg>
