<svg width="18" height="18" viewBox="0 0 18 18" fill="none" xmlns="http://www.w3.org/2000/svg">
<path fill-rule="evenodd" clip-rule="evenodd" d="M9 18C4.02955 18 0 13.9705 0 9C0 4.02955 4.02955 0 9 0C13.9705 0 18 4.02955 18 9C17.9959 13.9664 13.9664 17.9959 9 18ZM9 2.57318C5.44909 2.57318 2.57318 5.44909 2.57318 9C2.57318 12.5509 5.44909 15.4268 9 15.4268C12.5509 15.4268 15.4268 12.5509 15.4268 9C15.4268 5.44909 12.5509 2.57318 9 2.57318ZM9 12.8577C6.86864 12.8577 5.14227 11.1314 5.14227 9C5.14227 6.86864 6.86864 5.14227 9 5.14227C11.1314 5.14227 12.8577 6.86864 12.8577 9C12.8577 10.0227 12.4486 11.0045 11.7286 11.7286C11.0045 12.4486 10.0227 12.8577 9 12.8577Z" fill="#D0D0D0"/>
</svg>
