<svg width="72" height="40" viewBox="0 0 72 40" fill="none" xmlns="http://www.w3.org/2000/svg">
<rect width="72" height="40" rx="20" transform="matrix(-1 0 0 1 72 0)" fill="#0FC0C6"/>
<path d="M30 20L29.4697 19.4697L28.9393 20L29.4697 20.5303L30 20ZM42 20.75C42.4142 20.75 42.75 20.4142 42.75 20C42.75 19.5858 42.4142 19.25 42 19.25V20.75ZM33.4697 15.4697L29.4697 19.4697L30.5303 20.5303L34.5303 16.5303L33.4697 15.4697ZM29.4697 20.5303L33.4697 24.5303L34.5303 23.4697L30.5303 19.4697L29.4697 20.5303ZM30 20.75H42V19.25H30V20.75Z" fill="white"/>
</svg>
