<svg width="38" height="38" viewBox="0 0 38 38" fill="none" xmlns="http://www.w3.org/2000/svg">
<path d="M19 37.9998C29.4934 37.9998 38 29.4932 38 18.9998C38 8.50635 29.4934 -0.000244141 19 -0.000244141C8.50659 -0.000244141 0 8.50635 0 18.9998C0 29.4932 8.50659 37.9998 19 37.9998Z" fill="#0FC0C6"/>
<path fill-rule="evenodd" clip-rule="evenodd" d="M8.60012 18.7992C14.139 16.386 17.8325 14.795 19.6805 14.0264C24.957 11.8317 26.0534 11.4505 26.768 11.4379C26.9252 11.4351 27.2766 11.4741 27.5043 11.6588C27.6965 11.8147 27.7494 12.0254 27.7747 12.1733C27.8 12.3212 27.8315 12.6581 27.8065 12.9213C27.5205 15.9256 26.2833 23.2164 25.6539 26.5813C25.3875 28.0051 24.8631 28.4825 24.3554 28.5293C23.252 28.6308 22.4142 27.8001 21.3455 27.0996C19.6733 26.0034 18.7285 25.321 17.1053 24.2513C15.2294 23.0152 16.4455 22.3357 17.5146 21.2253C17.7944 20.9348 22.6558 16.5129 22.7499 16.1118C22.7617 16.0616 22.7726 15.8746 22.6615 15.7758C22.5504 15.6771 22.3864 15.7109 22.2681 15.7377C22.1004 15.7758 19.429 17.5415 14.2538 21.0349C13.4955 21.5556 12.8087 21.8093 12.1933 21.796C11.5149 21.7813 10.21 21.4124 9.23986 21.0971C8.04998 20.7103 7.10429 20.5058 7.18664 19.8489C7.22953 19.5068 7.70069 19.1569 8.60012 18.7992Z" fill="white"/>
</svg>
