<svg width="72" height="72" viewBox="0 0 72 72" fill="none" xmlns="http://www.w3.org/2000/svg">
<rect width="72" height="72" rx="36" fill="white"/>
<path d="M44.7996 29.399L44.9408 28.409L45.9308 28.5502L45.7896 29.5402L44.7996 29.399ZM27.8024 43.4024C27.3606 43.7338 26.7338 43.6444 26.4024 43.2027C26.0709 42.7609 26.1603 42.1341 26.6021 41.8026L27.8024 43.4024ZM34.6739 26.9444L44.9408 28.409L44.6584 30.389L34.3914 28.9243L34.6739 26.9444ZM45.7896 29.5402L44.325 39.8072L42.345 39.5247L43.8096 29.2578L45.7896 29.5402ZM45.3998 30.1989L27.8024 43.4024L26.6021 41.8026L44.1994 28.5991L45.3998 30.1989Z" fill="black"/>
</svg>
